<svg xmlns="http://www.w3.org/2000/svg" width="16" height="16" viewBox="0 0 16 16">
    <path style="fill:none" d="M0 0h16v16H0z"/>
    <g data-name="그룹 20008">
        <path data-name="패스 2462" d="M10.726 10.448a.8.8 0 0 1-1.072 0L2.87 4.28a1.6 1.6 0 0 1 .9-.28h12.8a1.6 1.6 0 0 1 .9.28z" transform="translate(-2.174 -1.9)" style="fill:#fff"/>
        <path data-name="패스 2463" d="M18 6.26v8.592a2.4 2.4 0 0 1-2.4 2.4H4.4a2.4 2.4 0 0 1-2.4-2.4V6.26l6.944 6.34a1.6 1.6 0 0 0 2.12-.016z" transform="translate(-2 -2.352)" style="fill:#fff"/>
    </g>
</svg>
