<svg xmlns="http://www.w3.org/2000/svg" width="89" height="74" viewBox="0 0 89 74">
    <g data-name="그룹 20016">
        <circle data-name="타원 59" cx="27" cy="27" r="27" transform="translate(35 20)" style="opacity:.2;fill:#5f56c6"/>
        <circle data-name="타원 60" cx="15" cy="15" r="15" style="opacity:.1;fill:#5f56c6"/>
    </g>
    <g data-name="그룹 19999">
        <path data-name="패스 2450" d="m49.035 44.616-45.9-16.007A3.933 3.933 0 0 1 .5 25.03v-4.287a3.933 3.933 0 0 1 2.635-3.7l45.9-15.968a1.967 1.967 0 0 1 2.6 1.849v39.844a1.967 1.967 0 0 1-2.6 1.849z" transform="translate(10.501 6.21)" style="fill:none;stroke:#5f56c6;stroke-linecap:round;stroke-linejoin:round;stroke-width:4px"/>
        <path data-name="패스 2451" d="M24.553 16.172A10.816 10.816 0 0 1 3 14.914V8.66" transform="translate(17.834 28.755)" style="fill:none;stroke:#5f56c6;stroke-linecap:round;stroke-linejoin:round;stroke-width:4px"/>
    </g>
</svg>
