<svg xmlns="http://www.w3.org/2000/svg" width="850" height="330" viewBox="0 0 850 330">
    <path transform="translate(176 161)" style="fill:#5f56c6" d="M0 0h84v1H0z"/>
    <path data-name="line" transform="translate(590 161)" style="fill:#5f56c6" d="M0 0h84v1H0z"/>
    <g data-name="그룹 19979">
        <g data-name="타원 18" transform="translate(0 71)" style="stroke:#5f56c6;stroke-width:2px;fill:#fff">
            <circle cx="90" cy="90" r="90" style="stroke:none"/>
            <circle cx="90" cy="90" r="89" style="fill:none"/>
        </g>
        <text transform="translate(90 173)" style="font-family:NotoSansCJKkr-Black,Noto Sans CJK KR;font-weight:800;font-size:22px;fill:#5f56c6"><tspan x="-40.48" y="0">판매고객</tspan></text>
    </g>
    <g data-name="그룹 19980" transform="translate(-164 -1214)">
        <circle data-name="타원 18" cx="165" cy="165" r="165" transform="translate(424 1214)" style="opacity:.2;fill:#5f56c6"/>
        <circle data-name="타원 48" cx="127" cy="127" r="127" transform="translate(462 1252)" style="opacity:.3;fill:#5f56c6"/>
        <circle data-name="타원 49" cx="94" cy="94" r="94" transform="translate(495 1285)" style="fill:#5f56c6"/>
        <text transform="translate(589 1371)" style="font-size:26px;font-family:NotoSansCJKkr-Black,Noto Sans CJK KR;font-weight:800;fill:#fff"><tspan x="-23.92" y="0">촌장</tspan></text>
        <text data-name="상품안내, 홍보, 주문" transform="translate(589 1404)" style="font-size:18px;font-family:NotoSansCJKkr-Regular,Noto Sans CJK KR;fill:#fff"><tspan x="-77.292" y="0" xml:space="preserve">상품안내,  홍보, 주문</tspan></text>
    </g>
    <g data-name="그룹 19981">
        <g data-name="타원 18" transform="translate(670 71)" style="stroke:#5f56c6;stroke-width:2px;fill:#fff">
            <circle cx="90" cy="90" r="90" style="stroke:none"/>
            <circle cx="90" cy="90" r="89" style="fill:none"/>
        </g>
        <text transform="translate(760 173)" style="font-family:NotoSansCJKkr-Black,Noto Sans CJK KR;font-weight:800;font-size:22px;fill:#5f56c6"><tspan x="-40.48" y="0">주문고객</tspan></text>
    </g>
</svg>
