<svg xmlns="http://www.w3.org/2000/svg" width="960" height="479" viewBox="0 0 960 479">
    <g transform="translate(-480 -8951)">
        <circle data-name="타원 66" cx="50" cy="50" r="50" transform="translate(960 9207)" style="opacity:.3;fill:#5f56c6"/>
        <circle data-name="타원 67" cx="10.5" cy="10.5" r="10.5" transform="translate(1167 9406)" style="opacity:.3;fill:#5f56c6"/>
        <path transform="translate(590 9056)" style="fill:#5f56c6" d="M0 0h744v1H0z"/>
        <path data-name="line" transform="translate(1085 9322)" style="fill:#5f56c6" d="M0 0h249v1H0z"/>
        <path data-name="line" transform="rotate(90 -3860 5195)" style="fill:#5f56c6" d="M0 0h207v1H0z"/>
        <g data-name="타원 18" transform="translate(480 8951)" style="stroke:#5f56c6;stroke-width:2px;fill:#fff">
            <circle cx="105" cy="105" r="105" style="stroke:none"/>
            <circle cx="105" cy="105" r="104" style="fill:none"/>
        </g>
        <circle data-name="타원 65" cx="105" cy="105" r="105" transform="translate(980 9220)" style="fill:#5f56c6"/>
        <g data-name="타원 61" transform="translate(730 8951)" style="stroke:#5f56c6;stroke-width:2px;fill:#fff">
            <circle cx="105" cy="105" r="105" style="stroke:none"/>
            <circle cx="105" cy="105" r="104" style="fill:none"/>
        </g>
        <g data-name="타원 64" transform="translate(1230 9220)" style="stroke:#5f56c6;stroke-width:2px;fill:#fff">
            <circle cx="105" cy="105" r="105" style="stroke:none"/>
            <circle cx="105" cy="105" r="104" style="fill:none"/>
        </g>
        <g data-name="타원 62" transform="translate(980 8951)" style="stroke:#5f56c6;stroke-width:2px;fill:#fff">
            <circle cx="105" cy="105" r="105" style="stroke:none"/>
            <circle cx="105" cy="105" r="104" style="fill:none"/>
        </g>
        <g data-name="타원 63" transform="translate(1230 8951)" style="stroke:#5f56c6;stroke-width:2px;fill:#fff">
            <circle cx="105" cy="105" r="105" style="stroke:none"/>
            <circle cx="105" cy="105" r="104" style="fill:none"/>
        </g>
        <g data-name="구성 요소 61 – 1">
            <text data-name="대운화학설립 친환경 포장재, 원료 개발" transform="translate(588 9059)" style="font-size:18px;font-family:NotoSansCJKkr-Regular,Noto Sans CJK KR;opacity:.8;fill:#222"><tspan x="-49.68" y="0">대운화학설립</tspan><tspan x="-54.198" y="27">친환경 포장재,</tspan><tspan x="-35.136" y="54">원료 개발</tspan></text>
            <text data-name="2017.11" transform="translate(588 9022)" style="font-size:22px;font-family:NotoSansCJKkr-Black,Noto Sans CJK KR;font-weight:800;fill:#5f56c6"><tspan x="-44.055" y="0">2017.11</tspan></text>
        </g>
        <g data-name="구성 요소 61 – 6">
            <text data-name="촌장 서비스 베타오픈예정" transform="translate(1085 9338)" style="font-size:18px;font-family:NotoSansCJKkr-Regular,Noto Sans CJK KR;opacity:.8;fill:#fff"><tspan x="-43.416" y="0">촌장 서비스</tspan><tspan x="-49.68" y="27">베타오픈예정</tspan></text>
            <text data-name="2023.03" transform="translate(1085 9301)" style="font-size:22px;font-family:NotoSansCJKkr-Black,Noto Sans CJK KR;font-weight:800;fill:#fff"><tspan x="-44.055" y="0">2023.03</tspan></text>
        </g>
        <g data-name="구성 요소 61 – 2">
            <text data-name="EBS ‘극한직업’ 재활용원료 인터뷰" transform="translate(835 9059)" style="font-size:18px;font-family:NotoSansCJKkr-Regular,Noto Sans CJK KR;opacity:.8;fill:#222"><tspan x="-56.583" y="0">EBS ‘극한직업’</tspan><tspan x="-41.4" y="27">재활용원료</tspan><tspan x="-24.84" y="54">인터뷰</tspan></text>
            <text data-name="2020.02" transform="translate(835 9022)" style="font-size:22px;font-family:NotoSansCJKkr-Black,Noto Sans CJK KR;font-weight:800;fill:#5f56c6"><tspan x="-49.093" y="0" xml:space="preserve">2020.02  </tspan></text>
        </g>
        <g data-name="구성 요소 61 – 5">
            <text data-name="회사명 ‘콤마존’ 법인전환예정" transform="translate(1335 9339)" style="font-size:18px;font-family:NotoSansCJKkr-Regular,Noto Sans CJK KR;opacity:.8;fill:#222"><tspan x="-56.7" y="0">회사명 ‘콤마존’</tspan><tspan x="-49.68" y="27">법인전환예정</tspan></text>
            <text data-name="2022.1" transform="translate(1335 9302)" style="font-size:22px;font-family:NotoSansCJKkr-Black,Noto Sans CJK KR;font-weight:800;fill:#5f56c6"><tspan x="-46.574" y="0">2022.10 </tspan></text>
        </g>
        <g data-name="구성 요소 61 – 3">
            <text data-name="‘대리마케터를 활용한 물품판매서비스 제공서버 BM출원" transform="translate(1085 9059)" style="font-size:18px;font-family:NotoSansCJKkr-Regular,Noto Sans CJK KR;opacity:.8;fill:#222"><tspan x="-79.038" y="0">‘대리마케터를 활용한</tspan><tspan x="-57.96" y="27">물품판매서비스</tspan><tspan x="-64.917" y="54">제공서버 BM출원</tspan></text>
            <text data-name="2021.04" transform="translate(1085 9022)" style="font-size:22px;font-family:NotoSansCJKkr-Black,Noto Sans CJK KR;font-weight:800;fill:#5f56c6"><tspan x="-44.055" y="0">2021.04</tspan></text>
        </g>
        <g data-name="구성 요소 61 – 4">
            <text data-name="촌장상표등록 인터넷중계업 및 광고업" transform="translate(1335 9059)" style="font-size:18px;font-family:NotoSansCJKkr-Regular,Noto Sans CJK KR;opacity:.8;fill:#222"><tspan x="-49.68" y="0">촌장상표등록</tspan><tspan x="-49.68" y="27">인터넷중계업</tspan><tspan x="-37.152" y="54">및 광고업 </tspan></text>
            <text data-name="2022.05" transform="translate(1335 9022)" style="font-size:22px;font-family:NotoSansCJKkr-Black,Noto Sans CJK KR;font-weight:800;fill:#5f56c6"><tspan x="-44.055" y="0">2022.05</tspan></text>
        </g>
        <path data-name="다각형 14" d="M8.856.542a1 1 0 0 1 1.288 0L16.9 6.235A1 1 0 0 1 16.26 8H2.74a1 1 0 0 1-.64-1.765z" transform="rotate(90 -4166.255 4880.245)" style="fill:#5f56c6"/>
        <path data-name="다각형 15" d="M8.856.542a1 1 0 0 1 1.288 0L16.9 6.235A1 1 0 0 1 16.26 8H2.74a1 1 0 0 1-.64-1.765z" transform="rotate(90 -4041.25 5005.25)" style="fill:#5f56c6"/>
        <path data-name="다각형 16" d="M8.856.542a1 1 0 0 1 1.288 0L16.9 6.235A1 1 0 0 1 16.26 8H2.74a1 1 0 0 1-.64-1.765z" transform="rotate(90 -3916.25 5130.25)" style="fill:#5f56c6"/>
        <path data-name="다각형 18" d="M8.856.542a1 1 0 0 1 1.288 0L16.9 6.235A1 1 0 0 1 16.26 8H2.74a1 1 0 0 1-.64-1.765z" transform="rotate(-90 5268.75 4062.75)" style="fill:#5f56c6"/>
        <path data-name="다각형 17" d="M8.856.542a1 1 0 0 1 1.288 0L16.9 6.235A1 1 0 0 1 16.26 8H2.74a1 1 0 0 1-.64-1.765z" transform="rotate(180 671.75 4597)" style="fill:#5f56c6"/>
    </g>
</svg>
