<svg xmlns="http://www.w3.org/2000/svg" width="926" height="608" viewBox="0 0 926 608">
    <g transform="translate(-459.677 -8951)">
        <ellipse data-name="타원 66" cx="63.5" cy="63" rx="63.5" ry="63" transform="translate(459.677 9276)" style="opacity:.3;fill:#5f56c6"/>
        <ellipse data-name="타원 67" cx="13" cy="13.5" rx="13" ry="13.5" transform="translate(722.677 9528)" style="opacity:.3;fill:#5f56c6"/>
        <path transform="translate(624.677 9084)" style="fill:#5f56c6" d="M0 0h507v1H0z"/>
        <path data-name="line" transform="translate(618.677 9421)" style="fill:#5f56c6" d="M0 0h585v1H0z"/>
        <path data-name="line" transform="rotate(90 -3914.662 5167.338)" style="fill:#5f56c6" d="M0 0h263v1H0z"/>
        <g data-name="타원 18" transform="translate(484.677 8951)" style="stroke:#5f56c6;stroke-width:2px;fill:#fff">
            <circle cx="133.5" cy="133.5" r="133.5" style="stroke:none"/>
            <circle cx="133.5" cy="133.5" r="132.5" style="fill:none"/>
        </g>
        <circle data-name="타원 65" cx="133.5" cy="133.5" r="133.5" transform="translate(484.677 9292)" style="fill:#5f56c6"/>
        <g data-name="타원 61" transform="translate(801.677 8951)" style="stroke:#5f56c6;stroke-width:2px;fill:#fff">
            <circle cx="133.5" cy="133.5" r="133.5" style="stroke:none"/>
            <circle cx="133.5" cy="133.5" r="132.5" style="fill:none"/>
        </g>
        <g data-name="타원 64" transform="translate(801.677 9292)" style="stroke:#5f56c6;stroke-width:2px;fill:#fff">
            <circle cx="133.5" cy="133.5" r="133.5" style="stroke:none"/>
            <circle cx="133.5" cy="133.5" r="132.5" style="fill:none"/>
        </g>
        <g data-name="타원 62" transform="translate(1118.677 8951)" style="stroke:#5f56c6;stroke-width:2px;fill:#fff">
            <circle cx="133.5" cy="133.5" r="133.5" style="stroke:none"/>
            <circle cx="133.5" cy="133.5" r="132.5" style="fill:none"/>
        </g>
        <g data-name="타원 63" transform="translate(1118.677 9292)" style="stroke:#5f56c6;stroke-width:2px;fill:#fff">
            <circle cx="133.5" cy="133.5" r="133.5" style="stroke:none"/>
            <circle cx="133.5" cy="133.5" r="132.5" style="fill:none"/>
        </g>
        <g data-name="구성 요소 61 – 7">
            <text data-name="대운화학설립 친환경 포장재, 원료 개발" transform="translate(620.677 9087)" style="font-family:NotoSansCJKkr-Regular,Noto Sans CJK KR;opacity:.8;font-size:22px;fill:#222"><tspan x="-60.72" y="0">대운화학설립</tspan><tspan x="-66.242" y="33">친환경 포장재,</tspan><tspan x="-42.944" y="66">원료 개발</tspan></text>
            <text data-name="2017.11" transform="translate(621.677 9039)" style="font-family:NotoSansCJKkr-Black,Noto Sans CJK KR;font-weight:800;font-size:27px;fill:#5f56c6"><tspan x="-54.068" y="0">2017.11</tspan></text>
        </g>
        <g data-name="구성 요소 61 – 8">
            <text data-name="촌장 서비스 베타오픈예정" transform="translate(618.677 9442)" style="font-size:23px;font-family:NotoSansCJKkr-Regular,Noto Sans CJK KR;opacity:.8;fill:#fff"><tspan x="-55.476" y="0">촌장 서비스</tspan><tspan x="-63.48" y="34">베타오픈예정</tspan></text>
            <text data-name="2023.03" transform="translate(617.677 9393)" style="font-family:NotoSansCJKkr-Black,Noto Sans CJK KR;font-weight:800;font-size:27px;fill:#fff"><tspan x="-54.068" y="0">2023.03</tspan></text>
        </g>
        <g data-name="구성 요소 61 – 9">
            <text data-name="EBS ‘극한직업’ 재활용원료 인터뷰" transform="translate(934.677 9088)" style="font-size:23px;font-family:NotoSansCJKkr-Regular,Noto Sans CJK KR;opacity:.8;fill:#222"><tspan x="-72.301" y="0">EBS ‘극한직업’</tspan><tspan x="-52.9" y="34">재활용원료</tspan><tspan x="-31.74" y="68">인터뷰</tspan></text>
            <text data-name="2020.02" transform="translate(934.677 9040)" style="font-size:28px;font-family:NotoSansCJKkr-Black,Noto Sans CJK KR;font-weight:800;fill:#5f56c6"><tspan x="-62.482" y="0" xml:space="preserve">2020.02  </tspan></text>
        </g>
        <g data-name="구성 요소 61 – 10">
            <text data-name="회사명 ‘콤마존’ 법인전환예정" transform="translate(934.677 9443)" style="font-size:23px;font-family:NotoSansCJKkr-Regular,Noto Sans CJK KR;opacity:.8;fill:#222"><tspan x="-72.45" y="0">회사명 ‘콤마존’</tspan><tspan x="-63.48" y="34">법인전환예정</tspan></text>
            <text data-name="2022.1" transform="translate(934.677 9395)" style="font-size:28px;font-family:NotoSansCJKkr-Black,Noto Sans CJK KR;font-weight:800;fill:#5f56c6"><tspan x="-59.276" y="0">2022.10 </tspan></text>
        </g>
        <g data-name="구성 요소 61 – 11">
            <text data-name="‘대리마케터를 활용한 물품판매서비스 제공서버 BM출원" transform="translate(1248.677 9087)" style="font-family:NotoSansCJKkr-Regular,Noto Sans CJK KR;opacity:.8;font-size:22px;fill:#222"><tspan x="-96.602" y="0">‘대리마케터를 활용한</tspan><tspan x="-70.84" y="33">물품판매서비스</tspan><tspan x="-79.343" y="66">제공서버 BM출원</tspan></text>
            <text data-name="2021.04" transform="translate(1249.677 9039)" style="font-family:NotoSansCJKkr-Black,Noto Sans CJK KR;font-weight:800;font-size:27px;fill:#5f56c6"><tspan x="-54.068" y="0">2021.04</tspan></text>
        </g>
        <g data-name="구성 요소 61 – 12">
            <text data-name="촌장상표등록 인터넷중개업 및 광고업" transform="translate(1251.677 9435)" style="font-size:23px;font-family:NotoSansCJKkr-Regular,Noto Sans CJK KR;opacity:.8;fill:#222"><tspan x="-63.48" y="0">촌장상표등록</tspan><tspan x="-63.48" y="34">인터넷중개업</tspan><tspan x="-47.472" y="68">및 광고업 </tspan></text>
            <text data-name="2022.05" transform="translate(1250.677 9380)" style="font-family:NotoSansCJKkr-Black,Noto Sans CJK KR;font-weight:800;font-size:27px;fill:#5f56c6"><tspan x="-54.068" y="0">2022.05</tspan></text>
        </g>
        <path data-name="다각형 14" d="M11.4.542a1 1 0 0 1 1.288 0L22 8.379a1 1 0 0 1-.644 1.765H2.74a1 1 0 0 1-.64-1.765z" transform="rotate(90 -4145.014 4927.086)" style="fill:#5f56c6"/>
        <path data-name="다각형 15" d="M11.4.542a1 1 0 0 1 1.288 0L22 8.379a1 1 0 0 1-.644 1.765H2.74a1 1 0 0 1-.64-1.765z" transform="rotate(90 -3986.502 5085.599)" style="fill:#5f56c6"/>
        <path data-name="다각형 18" d="M11.4.542a1 1 0 0 1 1.288 0L22 8.379a1 1 0 0 1-.644 1.765H2.74a1 1 0 0 1-.64-1.765z" transform="rotate(-90 5102.717 4330.776)" style="fill:#5f56c6"/>
        <path data-name="다각형 19" d="M11.4.542a1 1 0 0 1 1.288 0L22 8.379a1 1 0 0 1-.644 1.765H2.74a1 1 0 0 1-.64-1.765z" transform="rotate(-90 5261.223 4172.27)" style="fill:#5f56c6"/>
        <path data-name="다각형 17" d="M11.4.542a1 1 0 0 1 1.288 0L22 8.379a1 1 0 0 1-.644 1.765H2.74a1 1 0 0 1-.64-1.765z" transform="rotate(180 632.289 4629.568)" style="fill:#5f56c6"/>
    </g>
</svg>
