<svg xmlns="http://www.w3.org/2000/svg" width="900" height="995.716" viewBox="0 0 900 995.716">
    <path data-name="다각형 4" d="M247.341 0a20 20 0 0 1 17.344 10.041l74.822 130.3a20 20 0 0 1 0 19.919l-74.822 130.3a20 20 0 0 1-17.345 10.04H97.885a20 20 0 0 1-17.344-10.041L5.719 160.261a20 20 0 0 1 0-19.918l74.822-130.3A20 20 0 0 1 97.885 0z" transform="translate(277.165 371.365)" style="opacity:.3;fill:#5f56c6"/>
    <path data-name="다각형 5" d="M247.341 0a20 20 0 0 1 17.344 10.041l74.822 130.3a20 20 0 0 1 0 19.919l-74.822 130.3a20 20 0 0 1-17.345 10.04H97.885a20 20 0 0 1-17.344-10.041L5.719 160.261a20 20 0 0 1 0-19.918l74.822-130.3A20 20 0 0 1 97.885 0z" transform="translate(0 214.732)" style="fill:#5f56c6"/>
    <path data-name="다각형 6" d="M247.341 0a20 20 0 0 1 17.344 10.041l74.822 130.3a20 20 0 0 1 0 19.919l-74.822 130.3a20 20 0 0 1-17.345 10.04H97.885a20 20 0 0 1-17.344-10.041L5.719 160.261a20 20 0 0 1 0-19.918l74.822-130.3A20 20 0 0 1 97.885 0z" transform="translate(554.775 214.732)" style="fill:#5f56c6"/>
    <path data-name="다각형 7" d="M247.341 0a20 20 0 0 1 17.344 10.041l74.822 130.3a20 20 0 0 1 0 19.919l-74.822 130.3a20 20 0 0 1-17.345 10.04H97.885a20 20 0 0 1-17.344-10.041L5.719 160.261a20 20 0 0 1 0-19.918l74.822-130.3A20 20 0 0 1 97.885 0z" transform="translate(277.165 695.111)" style="fill:#5f56c6"/>
    <path data-name="다각형 8" d="M247.341 0a20 20 0 0 1 17.344 10.041l74.822 130.3a20 20 0 0 1 0 19.919l-74.822 130.3a20 20 0 0 1-17.345 10.04H97.885a20 20 0 0 1-17.344-10.041L5.719 160.261a20 20 0 0 1 0-19.918l74.822-130.3A20 20 0 0 1 97.885 0z" transform="translate(554.775 533.513)" style="fill:#5f56c6"/>
    <path data-name="다각형 9" d="M247.341 0a20 20 0 0 1 17.344 10.041l74.822 130.3a20 20 0 0 1 0 19.919l-74.822 130.3a20 20 0 0 1-17.345 10.04H97.885a20 20 0 0 1-17.344-10.041L5.719 160.261a20 20 0 0 1 0-19.918l74.822-130.3A20 20 0 0 1 97.885 0z" transform="translate(277.165 51.618)" style="fill:#5f56c6"/>
    <path data-name="다각형 10" d="M135.795 0a20 20 0 0 1 17.344 10.041l37.64 65.55a20 20 0 0 1 0 19.918l-37.64 65.55a20 20 0 0 1-17.344 10.041H60.7a20 20 0 0 1-17.344-10.041L5.719 95.509a20 20 0 0 1 0-19.918l37.64-65.55A20 20 0 0 1 60.7 0z" transform="translate(107.042 26.326)" style="opacity:.1;fill:#5f56c6"/>
    <path data-name="다각형 11" d="M135.795 0a20 20 0 0 1 17.344 10.041l37.64 65.55a20 20 0 0 1 0 19.918l-37.64 65.55a20 20 0 0 1-17.344 10.041H60.7a20 20 0 0 1-17.344-10.041L5.719 95.509a20 20 0 0 1 0-19.918l37.64-65.55A20 20 0 0 1 60.7 0z" transform="translate(588.839 23.727)" style="opacity:.3;fill:#5f56c6"/>
    <path data-name="다각형 12" d="M72.865 0a20 20 0 0 1 17.344 10.041l16.663 29.019a20 20 0 0 1 0 19.918L90.209 88a20 20 0 0 1-17.344 10.039H39.726A20 20 0 0 1 22.382 88L5.719 58.979a20 20 0 0 1 0-19.918l16.663-29.02A20 20 0 0 1 39.726 0z" transform="translate(771.535)" style="opacity:.1;fill:#5f56c6"/>
    <path data-name="다각형 13" d="M72.865 0a20 20 0 0 1 17.344 10.041l16.663 29.019a20 20 0 0 1 0 19.918L90.209 88a20 20 0 0 1-17.344 10.039H39.726A20 20 0 0 1 22.382 88L5.719 58.979a20 20 0 0 1 0-19.918l16.663-29.02A20 20 0 0 1 39.726 0z" transform="translate(177.605 536.663)" style="opacity:.1;fill:#5f56c6"/>
    <g data-name="그룹 20018">
        <text data-name="다양한 의견을 중심으로 소통" transform="translate(170.469 430.881)" style="font-size:26px;font-family:NotoSansCJKkr-Regular,Noto Sans CJK KR;opacity:.8;fill:#fff"><tspan x="-74.672" y="0">다양한 의견을</tspan><tspan x="-74.672" y="38">중심으로 소통</tspan></text>
        <text data-name="리더쉽을 기반으로 화합과 단결력" transform="translate(723.291 425.08)" style="font-size:26px;font-family:NotoSansCJKkr-Regular,Noto Sans CJK KR;opacity:.8;fill:#fff"><tspan x="-98.592" y="0">리더쉽을 기반으로</tspan><tspan x="-74.672" y="38">화합과 단결력</tspan></text>
        <text data-name="높은 실행력" transform="translate(447.314 280.009)" style="font-size:26px;font-family:NotoSansCJKkr-Regular,Noto Sans CJK KR;opacity:.8;fill:#fff"><tspan x="-62.712" y="0">높은 실행력</tspan></text>
        <text transform="translate(173.446 373.204)" style="font-family:NotoSansCJKkr-Black,Noto Sans CJK KR;font-weight:800;font-size:34px;fill:#fff"><tspan x="-31.28" y="0">소통</tspan></text>
        <text transform="translate(724.437 367.646)" style="font-family:NotoSansCJKkr-Black,Noto Sans CJK KR;font-weight:800;font-size:34px;fill:#fff"><tspan x="-31.28" y="0">단결</tspan></text>
        <text transform="translate(447.854 222.575)" style="font-family:NotoSansCJKkr-Black,Noto Sans CJK KR;font-weight:800;font-size:34px;fill:#fff"><tspan x="-31.28" y="0">실행</tspan></text>
        <g transform="translate(146.992 251.235)">
            <circle data-name="타원 36" cx="2.124" cy="2.124" transform="translate(10.619 25.486)" style="fill:none;stroke:#fff;stroke-linecap:round;stroke-linejoin:round;stroke-width:3px" r="2.124"/>
            <circle data-name="타원 37" cx="2.124" cy="2.124" transform="translate(24.424 25.486)" style="fill:none;stroke:#fff;stroke-linecap:round;stroke-linejoin:round;stroke-width:3px" r="2.124"/>
            <circle data-name="타원 38" cx="2.124" cy="2.124" transform="translate(38.229 25.486)" style="fill:none;stroke:#fff;stroke-linecap:round;stroke-linejoin:round;stroke-width:3px" r="2.124"/>
            <path data-name="패스 2452" d="M28.11.5A27.61 27.61 0 0 0 5.13 43.4L.5 55.72l15.5-2.8A27.61 27.61 0 1 0 28.11.5z" transform="translate(-.5 -.5)" style="fill:none;stroke:#fff;stroke-linecap:round;stroke-linejoin:round;stroke-width:3px"/>
        </g>
        <g transform="translate(700.11 249.72)">
            <circle data-name="타원 39" cx="9.557" cy="9.557" transform="translate(9.557)" style="fill:none;stroke:#fff;stroke-linecap:round;stroke-linejoin:round;stroke-width:3px" r="9.557"/>
            <path data-name="패스 2455" d="M38.729 31.362H.5v-4.247a19.115 19.115 0 1 1 38.229 0z" transform="translate(-.5 19.61)" style="fill:none;stroke:#fff;stroke-linecap:round;stroke-linejoin:round;stroke-width:3px"/>
            <path data-name="패스 2456" d="M9 1.5a9.557 9.557 0 0 1 0 19.115" transform="translate(27.105 -1.5)" style="fill:none;stroke:#fff;stroke-linecap:round;stroke-linejoin:round;stroke-width:3px"/>
            <path data-name="패스 2457" d="M10.6 8.19a19.115 19.115 0 0 1 12.318 17.84v4.715h-6.371" transform="translate(32.302 20.227)" style="fill:none;stroke:#fff;stroke-linecap:round;stroke-linejoin:round;stroke-width:3px"/>
        </g>
        <path data-name="패스 2459" d="M48.225 51.473a4.248 4.248 0 0 1-4.248 4.248H5.748A4.248 4.248 0 0 1 1.5 51.473V4.748A4.248 4.248 0 0 1 5.748.5h27.61l14.867 14.867z" transform="translate(425.84 99.495)" style="fill:none;stroke:#fff;stroke-linecap:round;stroke-linejoin:round;stroke-width:3px"/>
        <path data-name="패스 2460" d="m20.991 30.234-8.5-8.5L4 30.234V.5h16.991z" transform="translate(433.959 99.495)" style="fill:none;stroke:#fff;stroke-linecap:round;stroke-linejoin:round;stroke-width:3px"/>
    </g>
    <text data-name="높은 문제해결 능력" transform="translate(446.27 909.321)" style="font-size:26px;font-family:NotoSansCJKkr-Regular,Noto Sans CJK KR;opacity:.8;fill:#fff"><tspan x="-74.672" y="0">높은 문제해결</tspan><tspan x="-23.92" y="38">능력</tspan></text>
    <text data-name="책임감을 토대로한 주인의식" transform="translate(723.341 745.599)" style="font-size:26px;font-family:NotoSansCJKkr-Regular,Noto Sans CJK KR;opacity:.8;fill:#fff"><tspan x="-98.592" y="0">책임감을 토대로한</tspan><tspan x="-47.84" y="38">주인의식</tspan></text>
    <text transform="translate(446.394 851.643)" style="font-family:NotoSansCJKkr-Black,Noto Sans CJK KR;font-weight:800;font-size:34px;fill:#fff"><tspan x="-62.56" y="0">문제해결</tspan></text>
    <text data-name="책임감" transform="translate(724.833 689.922)" style="font-size:35px;font-family:NotoSansCJKkr-Black,Noto Sans CJK KR;font-weight:800;fill:#fff"><tspan x="-52.308" y="0" xml:space="preserve"> 책임감</tspan></text>
    <path data-name="패스 2453" d="M3.37 20.727 14.159 3.481a4.63 4.63 0 0 1 3.993-2.209h0a4.715 4.715 0 0 1 4.885 4.672v12.362h18.647a4.885 4.885 0 0 1 4.672 5.607l-3.4 21.918a4.842 4.842 0 0 1-4.8 4.248H10.294a8.5 8.5 0 0 1-3.823-.892l-3.059-1.53" transform="translate(708.931 568.931)" style="fill:none;stroke:#fff;stroke-linecap:round;stroke-linejoin:round;stroke-width:3px"/>
    <path data-name="선 2293" transform="translate(712.301 589.658)" style="fill:none;stroke:#fff;stroke-linecap:round;stroke-linejoin:round;stroke-width:3px" d="M0 0v26.803"/>
    <path data-name="패스 2454" d="M2.624 5.85h10.067v26.8H2.624A2.124 2.124 0 0 1 .5 30.529V7.974A2.124 2.124 0 0 1 2.624 5.85z" transform="translate(699.61 583.808)" style="fill:none;stroke:#fff;stroke-linecap:round;stroke-linejoin:round;stroke-width:3px"/>
    <g>
        <path data-name="선 2294" transform="translate(422.794 784.919)" style="fill:none;stroke:#fff;stroke-linecap:round;stroke-linejoin:round;stroke-width:3px" d="M0 0h46.725"/>
        <path data-name="패스 2458" d="M16.243 40.872 3.5 43.166l2.124-12.913 28.587-28.5a4.248 4.248 0 0 1 6.032 0l4.5 4.5a4.248 4.248 0 0 1 0 6.032z" transform="translate(432.037 729.18)" style="fill:none;stroke:#fff;stroke-linecap:round;stroke-linejoin:round;stroke-width:3px"/>
    </g>
</svg>
