<svg data-name="02_ic_excel" xmlns="http://www.w3.org/2000/svg" width="18.023" height="18" viewBox="0 0 18.023 18">
    <defs>
        <clipPath id="5jkbwn33ga">
            <path data-name="사각형 8" style="fill:none" d="M0 0h17.023v14.991H0z"/>
        </clipPath>
    </defs>
    <path style="fill:none" d="M0 0h18v18H0z"/>
    <g style="clip-path:url(#5jkbwn33ga)">
        <path data-name="패스 11" d="M16.5 1.977H10v1.977h1.52a.522.522 0 0 1 0 1.046h-1.514v.966h1.514a.521.521 0 0 1 0 1.042h-1.514v.981h1.514a.521.521 0 0 1 .52.522.5.5 0 0 1-.52.49h-1.514v.981h1.514a.522.522 0 0 1 0 1.043h-1.514v1.992h6.5a.521.521 0 0 0 .52-.522V2.5a.521.521 0 0 0-.52-.522m-2 9.045H13.46a.522.522 0 0 1 0-1.044h1.04a.522.522 0 0 1 0 1.044M14.5 9h-1.04a.5.5 0 0 1-.52-.49.521.521 0 0 1 .52-.522h1.04a.521.521 0 0 1 .52.522.5.5 0 0 1-.52.49m0-1.993h-1.04a.522.522 0 0 1 0-1.043h1.04a.522.522 0 0 1 0 1.043M14.5 5h-1.04a.522.522 0 0 1 0-1.043h1.04A.522.522 0 0 1 14.5 5M8.388.01.425 1.152A.521.521 0 0 0 0 1.665v11.708a.521.521 0 0 0 .425.513l7.963 1.1a.434.434 0 0 0 .1.01.52.52 0 0 0 .512-.527V.522a.524.524 0 0 0-.188-.4.509.509 0 0 0-.424-.112M7.105 9.974a.516.516 0 0 1-.734-.05L4.858 8.191 3.532 9.9a.517.517 0 0 1-.411.2.52.52 0 0 1-.411-.841l1.45-1.87-1.43-1.636a.523.523 0 0 1 .049-.736.515.515 0 0 1 .733.05l1.3 1.487 1.54-1.986a.521.521 0 1 1 .821.641L5.509 7.354l1.645 1.885a.522.522 0 0 1-.049.735" style="fill:#256035" transform="translate(1 1)"/>
    </g>
</svg>
