<svg xmlns="http://www.w3.org/2000/svg" width="20" height="20" viewBox="0 0 20 20">
    <g data-name="사각형 16" style="opacity:.3;fill:#fff;stroke:#bcbfc7">
        <rect width="20" height="20" rx="3" style="stroke:none"/>
        <rect x=".5" y=".5" width="19" height="19" rx="2.5" style="fill:none"/>
    </g>
    <path data-name="패스 18" d="M1.4 3.339a1.316 1.316 0 0 1 .991.464L4.52 6.18 9.608.463A1.316 1.316 0 0 1 10.6 0 1.5 1.5 0 0 1 12 1.583a1.684 1.684 0 0 1-.41 1.117L5.512 9.537a1.293 1.293 0 0 1-1.983 0L.412 6.04A1.686 1.686 0 0 1 0 4.921a1.5 1.5 0 0 1 1.4-1.582" transform="translate(4 5)" style="fill:#1bc1db;fill-rule:evenodd;opacity:.3"/>
</svg>
