<svg xmlns="http://www.w3.org/2000/svg" width="16" height="16" viewBox="0 0 16 16">
    <path style="fill:none" d="M0 0h16v16H0z"/>
    <g data-name="그룹 10">
        <path data-name="패스 10" d="M10.5 0A1.456 1.456 0 0 1 12 1.407v12.187A1.456 1.456 0 0 1 10.5 15h-3v-2.343A1.455 1.455 0 0 0 6 11.251a1.455 1.455 0 0 0-1.5 1.406V15h-3A1.456 1.456 0 0 1 0 13.594V1.407A1.456 1.456 0 0 1 1.5 0zM2 7.969a.486.486 0 0 0 .5.469h1a.487.487 0 0 0 .5-.469v-.937a.487.487 0 0 0-.5-.469h-1a.486.486 0 0 0-.5.469zm3.5-1.406a.487.487 0 0 0-.5.469v.937a.487.487 0 0 0 .5.469h1a.487.487 0 0 0 .5-.469v-.937a.487.487 0 0 0-.5-.469zM8 7.969a.487.487 0 0 0 .5.469h1a.487.487 0 0 0 .5-.469v-.937a.487.487 0 0 0-.5-.469h-1a.487.487 0 0 0-.5.469zM2.5 2.813a.486.486 0 0 0-.5.469v.937a.486.486 0 0 0 .5.469h1a.487.487 0 0 0 .5-.469v-.937a.487.487 0 0 0-.5-.469zM5 4.219a.487.487 0 0 0 .5.469h1a.487.487 0 0 0 .5-.469v-.937a.487.487 0 0 0-.5-.469h-1a.487.487 0 0 0-.5.469zm3.5-1.406a.487.487 0 0 0-.5.469v.937a.487.487 0 0 0 .5.469h1a.487.487 0 0 0 .5-.469v-.937a.487.487 0 0 0-.5-.469z" style="fill:#fff" transform="translate(2 .5)"/>
    </g>
</svg>
