<svg xmlns="http://www.w3.org/2000/svg" width="21.999" height="22" viewBox="0 0 21.999 22">
    <g data-name="bt-check-n" style="fill:#fff;fill-rule:evenodd">
        <path d="M18.499 22h-14c-1.93 0-3.5-1.571-3.499-3.5V4.498A3.504 3.504 0 0 1 4.5 1h13.999c1.93 0 3.5 1.57 3.5 3.5v13.999c0 .935-.364 1.814-1.025 2.476A3.477 3.477 0 0 1 18.5 22z" style="stroke:none" transform="translate(-.5 -.5)"/>
        <path d="M4.499 1.5A3.004 3.004 0 0 0 1.5 4.499v14c0 1.654 1.345 3 2.999 3.001h14a2.98 2.98 0 0 0 2.122-.879 2.98 2.98 0 0 0 .878-2.122v-14c0-1.654-1.346-2.999-3-2.999h-14m0-1h14a4 4 0 0 1 4 3.999v14a4 4 0 0 1-4 4.001h-14A4 4 0 0 1 .5 18.499v-14A4 4 0 0 1 4.499.5z" style="fill:#ddd;stroke:none" transform="translate(-.5 -.5)"/>
    </g>
</svg>
