<svg xmlns="http://www.w3.org/2000/svg" width="21.999" height="22" viewBox="0 0 21.999 22">
    <g data-name="패스 6" style="fill-rule:evenodd;fill:#fff">
        <path d="M18.499 22h-14c-1.93 0-3.5-1.571-3.499-3.5V4.498A3.504 3.504 0 0 1 4.5 1h13.999c1.93 0 3.5 1.57 3.5 3.5v13.999c0 .935-.364 1.814-1.025 2.476A3.477 3.477 0 0 1 18.5 22z" style="stroke:none" transform="translate(-.5 -.5)"/>
        <path d="M4.499 1.5A3.004 3.004 0 0 0 1.5 4.499v14c0 1.654 1.345 3 2.999 3.001h14a2.98 2.98 0 0 0 2.122-.879 2.98 2.98 0 0 0 .878-2.122v-14c0-1.654-1.346-2.999-3-2.999h-14m0-1h14a4 4 0 0 1 4 3.999v14a4 4 0 0 1-4 4.001h-14A4 4 0 0 1 .5 18.499v-14A4 4 0 0 1 4.499.5z" style="fill:#181818;stroke:none" transform="translate(-.5 -.5)"/>
    </g>
    <path data-name="패스 7" d="M9.743 15.495a1.19 1.19 0 0 1-.832-.338L6.223 12.62a1.192 1.192 0 0 1 1.661-1.711l1.859 1.732 4.728-4.819a1.193 1.193 0 1 1 1.662 1.711l-5.56 5.624a1.187 1.187 0 0 1-.83.338z" transform="translate(-.5 -.5)" style="fill:#181818;fill-rule:evenodd"/>
</svg>
