<svg xmlns="http://www.w3.org/2000/svg" width="16" height="16" viewBox="0 0 16 16">
    <path data-name="합치기 3" d="M131.276 396.5a1.779 1.779 0 0 1-1.777-1.777v-4.444a1.773 1.773 0 0 1 .114-.627l1.663-9.151h12.446l1.664 9.152a1.771 1.771 0 0 1 .114.625v4.444a1.78 1.78 0 0 1-1.778 1.777zm0-5.333v2.666a.891.891 0 0 0 .89.89h10.667a.89.89 0 0 0 .889-.89v-2.666a.89.89 0 0 0-.889-.889h-10.667a.891.891 0 0 0-.89.889zm.463-2.669h11.52l-1.315-6.222h-8.889zm7.938 4a.933.933 0 1 1 .934.933.934.934 0 0 1-.934-.931zm-6.622.444v-.889h5.334v.889z" transform="translate(-129.499 -380.501)" style="fill:#555"/>
</svg>
