<svg xmlns="http://www.w3.org/2000/svg" width="64" height="64" viewBox="0 0 64 64">
    <defs>
        <linearGradient id="linear-gradient" x1=".5" x2=".5" y2="1" gradientUnits="objectBoundingBox">
            <stop offset="0" stop-color="#dbdfe6"/>
            <stop offset="1" stop-color="#c5cacf"/>
        </linearGradient>
        <style>
            .cls-6{fill:#a7afb9}
        </style>
    </defs>
    <g id="ic-file-thumb" transform="translate(.163)">
        <path id="guide" transform="translate(-.163)" style="fill:none" d="M0 0h64v64H0z"/>
        <g id="그룹_19974" data-name="그룹 19974" transform="translate(7.986 2.036)">
            <g id="그룹_19968" data-name="그룹 19968">
                <g id="그룹_19965" data-name="그룹 19965">
                    <path id="패스_28418" data-name="패스 28418" d="M45.9 25.454V12H20.485A4.484 4.484 0 0 0 16 16.485v50.826a4.484 4.484 0 0 0 4.485 4.489h38.866a4.484 4.484 0 0 0 4.485-4.485V29.939H50.382a4.484 4.484 0 0 1-4.482-4.485z" transform="translate(-16 -12)" style="fill:url(#linear-gradient)"/>
                </g>
                <g id="그룹_19966" data-name="그룹 19966" transform="translate(31.416 16.883)" style="opacity:.2">
                    <path id="패스_28419" data-name="패스 28419" d="M37.016 23.294 53.436 37.8V24.349z" transform="translate(-37.016 -23.294)" style="fill:#9ea5ab"/>
                </g>
                <g id="그룹_19967" data-name="그룹 19967" transform="translate(29.898)">
                    <path id="패스_28420" data-name="패스 28420" d="M36 12v13.454a4.484 4.484 0 0 0 4.485 4.485h13.454z" transform="translate(-36 -12)" style="fill:#eff2f6"/>
                </g>
            </g>
        </g>
        <g id="그룹_19976" data-name="그룹 19976" transform="translate(15.956 15.959)">
            <path id="사각형_137159" data-name="사각형 137159" class="cls-6" transform="translate(.227)" d="M0 0h15.166v3.151H0z"/>
            <path id="사각형_137160" data-name="사각형 137160" class="cls-6" transform="translate(0 15.493)" d="M0 0h31.147v3.014H0z"/>
            <path id="사각형_137161" data-name="사각형 137161" class="cls-6" transform="translate(0 7.455)" d="M0 0h31.147v3.014H0z"/>
            <path id="사각형_137162" data-name="사각형 137162" class="cls-6" transform="translate(0 23.531)" d="M0 0h31.147v3.014H0z"/>
            <path id="사각형_137163" data-name="사각형 137163" class="cls-6" transform="translate(0 31.569)" d="M0 0h31.147v4.019H0z"/>
        </g>
    </g>
</svg>
