<svg xmlns="http://www.w3.org/2000/svg" width="16" height="16" viewBox="0 0 16 16">
    <g data-name="패스 40" style="fill:none">
        <path d="M14.588 49.228h-6.5L6.8 47.689a.2.2 0 0 0-.157-.071H1.412A1.426 1.426 0 0 0 0 49.046v10.872a1.426 1.426 0 0 0 1.412 1.426h13.176A1.426 1.426 0 0 0 16 59.918v-9.264a1.426 1.426 0 0 0-1.412-1.426z" style="stroke:none" transform="translate(0 -46.619)"/>
        <path d="M2 49.619v9.725h12v-8.116H7.16l-1.354-1.61H2m4.646-2c.058 0 .114.026.15.071l1.295 1.54h6.497A1.426 1.426 0 0 1 16 50.653v9.264c0 .782-.63 1.418-1.412 1.426H1.412A1.426 1.426 0 0 1 0 59.918V49.046c0-.783.63-1.42 1.412-1.427h5.234z" style="fill:#fff;stroke:none" transform="translate(0 -46.619)"/>
    </g>
</svg>
