<svg xmlns="http://www.w3.org/2000/svg" width="16" height="16.257" viewBox="0 0 16 16.257">
    <path data-name="패스 28323" d="M5.977 2.571 6.469 1.3A1.143 1.143 0 0 1 7.531.571h.937a1.143 1.143 0 0 1 1.063.729l.491 1.269 1.669.96 1.349-.206a1.143 1.143 0 0 1 1.143.56l.457.8a1.143 1.143 0 0 1-.091 1.291l-.835 1.066v1.92l.857 1.063a1.143 1.143 0 0 1 .091 1.291l-.457.8a1.143 1.143 0 0 1-1.143.56l-1.349-.206-1.669.96-.49 1.272a1.143 1.143 0 0 1-1.063.731h-.96a1.143 1.143 0 0 1-1.062-.731l-.491-1.269-1.669-.96-1.349.206a1.143 1.143 0 0 1-1.143-.56l-.457-.8a1.143 1.143 0 0 1 .091-1.291l.835-1.066V7.04l-.857-1.063a1.143 1.143 0 0 1-.091-1.291l.457-.8a1.143 1.143 0 0 1 1.143-.56l1.349.206zM5.714 8A2.286 2.286 0 1 0 8 5.714 2.286 2.286 0 0 0 5.714 8z" transform="translate(0 .129)" style="stroke:#555;fill:none;stroke-width:1.4px"/>
</svg>
