<svg xmlns="http://www.w3.org/2000/svg" width="18" height="18" viewBox="0 0 18 18">
  <g id="ic-like-s" transform="translate(80 -520)">
    <rect id="_area" data-name="@area" width="18" height="18" transform="translate(-80 520)" fill="rgba(255,0,0,0.1)" opacity="0"/>
    <path id="패스_28291" data-name="패스 28291" d="M8.133,15.1,1.486,8.127A3.966,3.966,0,0,1,.749,3.564h0A3.966,3.966,0,0,1,3.644,1.429a3.916,3.916,0,0,1,3.4,1.108L8.133,3.545,9.219,2.538a3.916,3.916,0,0,1,3.4-1.108,3.967,3.967,0,0,1,2.895,2.135h0a3.968,3.968,0,0,1-.737,4.563Z" transform="translate(-79.133 520.762)" fill="#419bf9" stroke="#419bf9" stroke-linecap="round" stroke-linejoin="round" stroke-width="2"/>
  </g>
</svg>
