<svg xmlns="http://www.w3.org/2000/svg" width="64" height="64" viewBox="0 0 64 64">
    <defs>
        <linearGradient id="a" x1=".5" x2=".5" y2="1" gradientUnits="objectBoundingBox">
            <stop offset="0" stop-color="#dbdfe6"/>
            <stop offset="1" stop-color="#c5cacf"/>
        </linearGradient>
    </defs>
    <path style="fill:none" d="M0 0h64v64H0z"/>
    <g data-name="그룹 19950">
        <g data-name="그룹 19949">
            <path data-name="패스 28410" d="M14.272 63.5c2.386 3.1 7.313 3.3 11.005.453 1.5-1.159 4.166-4.3 4.166-10.751v-19.94l28.4-5.425v12.584a5.525 5.525 0 0 1-4.8 5.687c-.1.013-.208.039-.312.057l-.135.016.019.006a9.61 9.61 0 0 0-4.139 1.843c-3.692 2.845-4.755 7.66-2.369 10.757s7.313 3.3 11.005.456c1.87-1.441 3.719-4.222 3.719-8.566V17.3a2.28 2.28 0 0 0-3.189-2.217L28.946 20.5c-1.761.537-2.492 2.4-2.492 4.163v19.428c0 4.446-4.1 6.5-5.3 6.727-.061.009-.121.028-.185.039a4.14 4.14 0 0 1-.259.034l.034.016a9.62 9.62 0 0 0-4.1 1.834c-3.695 2.844-4.753 7.659-2.372 10.759z" transform="translate(-8.277 -8.512)" style="fill:url(#a)"/>
        </g>
    </g>
</svg>
