<svg id="ic-music-waves" xmlns="http://www.w3.org/2000/svg" width="605" height="85" viewBox="0 0 605 85">
    <defs>
        <clipPath id="clip-path">
            <path id="Mask" class="cls-1" d="M-355-2217.5v-80a2.5 2.5 0 0 1 2.5-2.5 2.5 2.5 0 0 1 2.5 2.5v80a2.5 2.5 0 0 1-2.5 2.5 2.5 2.5 0 0 1-2.5-2.5zm96-8v-64a2.5 2.5 0 0 1 2.5-2.5 2.5 2.5 0 0 1 2.5 2.5v64a2.5 2.5 0 0 1-2.5 2.5 2.5 2.5 0 0 1-2.5-2.5zm-504 0v-64a2.5 2.5 0 0 1 2.5-2.5 2.5 2.5 0 0 1 2.5 2.5v64a2.5 2.5 0 0 1-2.5 2.5 2.5 2.5 0 0 1-2.5-2.5zm420-1v-62a2.5 2.5 0 0 1 2.5-2.5 2.5 2.5 0 0 1 2.5 2.5v62a2.5 2.5 0 0 1-2.5 2.5 2.5 2.5 0 0 1-2.5-2.5zm-192-2v-58a2.5 2.5 0 0 1 2.5-2.5 2.5 2.5 0 0 1 2.5 2.5v58a2.5 2.5 0 0 1-2.5 2.5 2.5 2.5 0 0 1-2.5-2.5zm-108 0v-58a2.5 2.5 0 0 1 2.5-2.5 2.5 2.5 0 0 1 2.5 2.5v58a2.5 2.5 0 0 1-2.5 2.5 2.5 2.5 0 0 1-2.5-2.5zm192-1v-56a2.5 2.5 0 0 1 2.5-2.5 2.5 2.5 0 0 1 2.5 2.5v56a2.5 2.5 0 0 1-2.5 2.5 2.5 2.5 0 0 1-2.5-2.5zm204-3v-50a2.5 2.5 0 0 1 2.5-2.5 2.5 2.5 0 0 1 2.5 2.5v50a2.5 2.5 0 0 1-2.5 2.5 2.5 2.5 0 0 1-2.5-2.5zm-48 0v-50a2.5 2.5 0 0 1 2.5-2.5 2.5 2.5 0 0 1 2.5 2.5v50a2.5 2.5 0 0 1-2.5 2.5 2.5 2.5 0 0 1-2.5-2.5zm-72 0v-50a2.5 2.5 0 0 1 2.5-2.5 2.5 2.5 0 0 1 2.5 2.5v50a2.5 2.5 0 0 1-2.5 2.5 2.5 2.5 0 0 1-2.5-2.5zm-264 0v-50a2.5 2.5 0 0 1 2.5-2.5 2.5 2.5 0 0 1 2.5 2.5v50a2.5 2.5 0 0 1-2.5 2.5 2.5 2.5 0 0 1-2.5-2.5zm-144 0v-50a2.5 2.5 0 0 1 2.5-2.5 2.5 2.5 0 0 1 2.5 2.5v50a2.5 2.5 0 0 1-2.5 2.5 2.5 2.5 0 0 1-2.5-2.5zm300-3v-44a2.5 2.5 0 0 1 2.5-2.5 2.5 2.5 0 0 1 2.5 2.5v44a2.5 2.5 0 0 1-2.5 2.5 2.5 2.5 0 0 1-2.5-2.5zm-48 0v-44a2.5 2.5 0 0 1 2.5-2.5 2.5 2.5 0 0 1 2.5 2.5v44a2.5 2.5 0 0 1-2.5 2.5 2.5 2.5 0 0 1-2.5-2.5zm-144 0v-44a2.5 2.5 0 0 1 2.5-2.5 2.5 2.5 0 0 1 2.5 2.5v44a2.5 2.5 0 0 1-2.5 2.5 2.5 2.5 0 0 1-2.5-2.5zm384-3v-38a2.5 2.5 0 0 1 2.5-2.5 2.5 2.5 0 0 1 2.5 2.5v38a2.5 2.5 0 0 1-2.5 2.5 2.5 2.5 0 0 1-2.5-2.5zm-204 0v-38a2.5 2.5 0 0 1 2.5-2.5 2.5 2.5 0 0 1 2.5 2.5v38a2.5 2.5 0 0 1-2.5 2.5 2.5 2.5 0 0 1-2.5-2.5zm-168 0v-38a2.5 2.5 0 0 1 2.5-2.5 2.5 2.5 0 0 1 2.5 2.5v38a2.5 2.5 0 0 1-2.5 2.5 2.5 2.5 0 0 1-2.5-2.5zm-24 0v-38a2.5 2.5 0 0 1 2.5-2.5 2.5 2.5 0 0 1 2.5 2.5v38a2.5 2.5 0 0 1-2.5 2.5 2.5 2.5 0 0 1-2.5-2.5zm-48 0v-38a2.5 2.5 0 0 1 2.5-2.5 2.5 2.5 0 0 1 2.5 2.5v38a2.5 2.5 0 0 1-2.5 2.5 2.5 2.5 0 0 1-2.5-2.5zm-72 0v-38a2.5 2.5 0 0 1 2.5-2.5 2.5 2.5 0 0 1 2.5 2.5v38a2.5 2.5 0 0 1-2.5 2.5 2.5 2.5 0 0 1-2.5-2.5zm468-2v-34a2.5 2.5 0 0 1 2.5-2.5 2.5 2.5 0 0 1 2.5 2.5v34a2.5 2.5 0 0 1-2.5 2.5 2.5 2.5 0 0 1-2.5-2.5zm-48 0v-34a2.5 2.5 0 0 1 2.5-2.5 2.5 2.5 0 0 1 2.5 2.5v34a2.5 2.5 0 0 1-2.5 2.5 2.5 2.5 0 0 1-2.5-2.5zm-216-2v-30a2.5 2.5 0 0 1 2.5-2.5 2.5 2.5 0 0 1 2.5 2.5v30a2.5 2.5 0 0 1-2.5 2.5 2.5 2.5 0 0 1-2.5-2.5zm-192 0v-30a2.5 2.5 0 0 1 2.5-2.5 2.5 2.5 0 0 1 2.5 2.5v30a2.5 2.5 0 0 1-2.5 2.5 2.5 2.5 0 0 1-2.5-2.5zm552-2v-26a2.5 2.5 0 0 1 2.5-2.5 2.5 2.5 0 0 1 2.5 2.5v26a2.5 2.5 0 0 1-2.5 2.5 2.5 2.5 0 0 1-2.5-2.5zm-72 0v-26a2.5 2.5 0 0 1 2.5-2.5 2.5 2.5 0 0 1 2.5 2.5v26a2.5 2.5 0 0 1-2.5 2.5 2.5 2.5 0 0 1-2.5-2.5zm-204 0v-26a2.5 2.5 0 0 1 2.5-2.5 2.5 2.5 0 0 1 2.5 2.5v26a2.5 2.5 0 0 1-2.5 2.5 2.5 2.5 0 0 1-2.5-2.5zm-60 0v-26a2.5 2.5 0 0 1 2.5-2.5 2.5 2.5 0 0 1 2.5 2.5v26a2.5 2.5 0 0 1-2.5 2.5 2.5 2.5 0 0 1-2.5-2.5zm132-1v-24a2.5 2.5 0 0 1 2.5-2.5 2.5 2.5 0 0 1 2.5 2.5v24a2.5 2.5 0 0 1-2.5 2.5 2.5 2.5 0 0 1-2.5-2.5zm-180 0v-24a2.5 2.5 0 0 1 2.5-2.5 2.5 2.5 0 0 1 2.5 2.5v24a2.5 2.5 0 0 1-2.5 2.5 2.5 2.5 0 0 1-2.5-2.5zm-72 0v-24a2.5 2.5 0 0 1 2.5-2.5 2.5 2.5 0 0 1 2.5 2.5v24a2.5 2.5 0 0 1-2.5 2.5 2.5 2.5 0 0 1-2.5-2.5zm-48-2v-20a2.5 2.5 0 0 1 2.5-2.5 2.5 2.5 0 0 1 2.5 2.5v20a2.5 2.5 0 0 1-2.5 2.5 2.5 2.5 0 0 1-2.5-2.5zm-84 0v-20a2.5 2.5 0 0 1 2.5-2.5 2.5 2.5 0 0 1 2.5 2.5v20a2.5 2.5 0 0 1-2.5 2.5 2.5 2.5 0 0 1-2.5-2.5zm552-1v-18a2.5 2.5 0 0 1 2.5-2.5 2.5 2.5 0 0 1 2.5 2.5v18a2.5 2.5 0 0 1-2.5 2.5 2.5 2.5 0 0 1-2.5-2.5zm-120 0v-18a2.5 2.5 0 0 1 2.5-2.5 2.5 2.5 0 0 1 2.5 2.5v18a2.5 2.5 0 0 1-2.5 2.5 2.5 2.5 0 0 1-2.5-2.5zm72-1v-16a2.5 2.5 0 0 1 2.5-2.5 2.5 2.5 0 0 1 2.5 2.5v16a2.5 2.5 0 0 1-2.5 2.5 2.5 2.5 0 0 1-2.5-2.5zm-180 0v-16a2.5 2.5 0 0 1 2.5-2.5 2.5 2.5 0 0 1 2.5 2.5v16a2.5 2.5 0 0 1-2.5 2.5 2.5 2.5 0 0 1-2.5-2.5zm-84 0v-16a2.5 2.5 0 0 1 2.5-2.5 2.5 2.5 0 0 1 2.5 2.5v16a2.5 2.5 0 0 1-2.5 2.5 2.5 2.5 0 0 1-2.5-2.5zm156-2v-12a2.5 2.5 0 0 1 2.5-2.5 2.5 2.5 0 0 1 2.5 2.5v12a2.5 2.5 0 0 1-2.5 2.5 2.5 2.5 0 0 1-2.5-2.5zm-180 0v-12a2.5 2.5 0 0 1 2.5-2.5 2.5 2.5 0 0 1 2.5 2.5v12a2.5 2.5 0 0 1-2.5 2.5 2.5 2.5 0 0 1-2.5-2.5zm-96 0v-12a2.5 2.5 0 0 1 2.5-2.5 2.5 2.5 0 0 1 2.5 2.5v12a2.5 2.5 0 0 1-2.5 2.5 2.5 2.5 0 0 1-2.5-2.5zm-48 0v-12a2.5 2.5 0 0 1 2.5-2.5 2.5 2.5 0 0 1 2.5 2.5v12a2.5 2.5 0 0 1-2.5 2.5 2.5 2.5 0 0 1-2.5-2.5zm-84 0v-12a2.5 2.5 0 0 1 2.5-2.5 2.5 2.5 0 0 1 2.5 2.5v12a2.5 2.5 0 0 1-2.5 2.5 2.5 2.5 0 0 1-2.5-2.5zm420-1v-10a2.5 2.5 0 0 1 2.5-2.5 2.5 2.5 0 0 1 2.5 2.5v10a2.5 2.5 0 0 1-2.5 2.5 2.5 2.5 0 0 1-2.5-2.5zm-48 0v-10a2.5 2.5 0 0 1 2.5-2.5 2.5 2.5 0 0 1 2.5 2.5v10a2.5 2.5 0 0 1-2.5 2.5 2.5 2.5 0 0 1-2.5-2.5zm-84 0v-10a2.5 2.5 0 0 1 2.5-2.5 2.5 2.5 0 0 1 2.5 2.5v10a2.5 2.5 0 0 1-2.5 2.5 2.5 2.5 0 0 1-2.5-2.5zm-168-2v-6a2.5 2.5 0 0 1 2.5-2.5 2.5 2.5 0 0 1 2.5 2.5v6a2.5 2.5 0 0 1-2.5 2.5 2.5 2.5 0 0 1-2.5-2.5zm-96 0v-6a2.5 2.5 0 0 1 2.5-2.5 2.5 2.5 0 0 1 2.5 2.5v6a2.5 2.5 0 0 1-2.5 2.5 2.5 2.5 0 0 1-2.5-2.5zm408-2v-2a2.5 2.5 0 0 1 2.5-2.5 2.5 2.5 0 0 1 2.5 2.5v2a2.5 2.5 0 0 1-2.5 2.5 2.5 2.5 0 0 1-2.5-2.5zm-156 0v-2a2.5 2.5 0 0 1 2.5-2.5 2.5 2.5 0 0 1 2.5 2.5v2a2.5 2.5 0 0 1-2.5 2.5 2.5 2.5 0 0 1-2.5-2.5z" transform="translate(917 2518)"/>
        </clipPath>
        <style>
            .cls-1{fill:#e0e0e0}
        </style>
    </defs>
    <g id="Waves" transform="translate(-82 -218)" style="clip-path:url(#clip-path)">
        <path id="Bars" class="cls-1" d="M-355-2217.5v-80a2.5 2.5 0 0 1 2.5-2.5 2.5 2.5 0 0 1 2.5 2.5v80a2.5 2.5 0 0 1-2.5 2.5 2.5 2.5 0 0 1-2.5-2.5zm96-8v-64a2.5 2.5 0 0 1 2.5-2.5 2.5 2.5 0 0 1 2.5 2.5v64a2.5 2.5 0 0 1-2.5 2.5 2.5 2.5 0 0 1-2.5-2.5zm-504 0v-64a2.5 2.5 0 0 1 2.5-2.5 2.5 2.5 0 0 1 2.5 2.5v64a2.5 2.5 0 0 1-2.5 2.5 2.5 2.5 0 0 1-2.5-2.5zm420-1v-62a2.5 2.5 0 0 1 2.5-2.5 2.5 2.5 0 0 1 2.5 2.5v62a2.5 2.5 0 0 1-2.5 2.5 2.5 2.5 0 0 1-2.5-2.5zm-192-2v-58a2.5 2.5 0 0 1 2.5-2.5 2.5 2.5 0 0 1 2.5 2.5v58a2.5 2.5 0 0 1-2.5 2.5 2.5 2.5 0 0 1-2.5-2.5zm-108 0v-58a2.5 2.5 0 0 1 2.5-2.5 2.5 2.5 0 0 1 2.5 2.5v58a2.5 2.5 0 0 1-2.5 2.5 2.5 2.5 0 0 1-2.5-2.5zm192-1v-56a2.5 2.5 0 0 1 2.5-2.5 2.5 2.5 0 0 1 2.5 2.5v56a2.5 2.5 0 0 1-2.5 2.5 2.5 2.5 0 0 1-2.5-2.5zm204-3v-50a2.5 2.5 0 0 1 2.5-2.5 2.5 2.5 0 0 1 2.5 2.5v50a2.5 2.5 0 0 1-2.5 2.5 2.5 2.5 0 0 1-2.5-2.5zm-48 0v-50a2.5 2.5 0 0 1 2.5-2.5 2.5 2.5 0 0 1 2.5 2.5v50a2.5 2.5 0 0 1-2.5 2.5 2.5 2.5 0 0 1-2.5-2.5zm-72 0v-50a2.5 2.5 0 0 1 2.5-2.5 2.5 2.5 0 0 1 2.5 2.5v50a2.5 2.5 0 0 1-2.5 2.5 2.5 2.5 0 0 1-2.5-2.5zm-264 0v-50a2.5 2.5 0 0 1 2.5-2.5 2.5 2.5 0 0 1 2.5 2.5v50a2.5 2.5 0 0 1-2.5 2.5 2.5 2.5 0 0 1-2.5-2.5zm-144 0v-50a2.5 2.5 0 0 1 2.5-2.5 2.5 2.5 0 0 1 2.5 2.5v50a2.5 2.5 0 0 1-2.5 2.5 2.5 2.5 0 0 1-2.5-2.5zm300-3v-44a2.5 2.5 0 0 1 2.5-2.5 2.5 2.5 0 0 1 2.5 2.5v44a2.5 2.5 0 0 1-2.5 2.5 2.5 2.5 0 0 1-2.5-2.5zm-48 0v-44a2.5 2.5 0 0 1 2.5-2.5 2.5 2.5 0 0 1 2.5 2.5v44a2.5 2.5 0 0 1-2.5 2.5 2.5 2.5 0 0 1-2.5-2.5zm-144 0v-44a2.5 2.5 0 0 1 2.5-2.5 2.5 2.5 0 0 1 2.5 2.5v44a2.5 2.5 0 0 1-2.5 2.5 2.5 2.5 0 0 1-2.5-2.5zm384-3v-38a2.5 2.5 0 0 1 2.5-2.5 2.5 2.5 0 0 1 2.5 2.5v38a2.5 2.5 0 0 1-2.5 2.5 2.5 2.5 0 0 1-2.5-2.5zm-204 0v-38a2.5 2.5 0 0 1 2.5-2.5 2.5 2.5 0 0 1 2.5 2.5v38a2.5 2.5 0 0 1-2.5 2.5 2.5 2.5 0 0 1-2.5-2.5zm-168 0v-38a2.5 2.5 0 0 1 2.5-2.5 2.5 2.5 0 0 1 2.5 2.5v38a2.5 2.5 0 0 1-2.5 2.5 2.5 2.5 0 0 1-2.5-2.5zm-24 0v-38a2.5 2.5 0 0 1 2.5-2.5 2.5 2.5 0 0 1 2.5 2.5v38a2.5 2.5 0 0 1-2.5 2.5 2.5 2.5 0 0 1-2.5-2.5zm-48 0v-38a2.5 2.5 0 0 1 2.5-2.5 2.5 2.5 0 0 1 2.5 2.5v38a2.5 2.5 0 0 1-2.5 2.5 2.5 2.5 0 0 1-2.5-2.5zm-72 0v-38a2.5 2.5 0 0 1 2.5-2.5 2.5 2.5 0 0 1 2.5 2.5v38a2.5 2.5 0 0 1-2.5 2.5 2.5 2.5 0 0 1-2.5-2.5zm468-2v-34a2.5 2.5 0 0 1 2.5-2.5 2.5 2.5 0 0 1 2.5 2.5v34a2.5 2.5 0 0 1-2.5 2.5 2.5 2.5 0 0 1-2.5-2.5zm-48 0v-34a2.5 2.5 0 0 1 2.5-2.5 2.5 2.5 0 0 1 2.5 2.5v34a2.5 2.5 0 0 1-2.5 2.5 2.5 2.5 0 0 1-2.5-2.5zm-216-2v-30a2.5 2.5 0 0 1 2.5-2.5 2.5 2.5 0 0 1 2.5 2.5v30a2.5 2.5 0 0 1-2.5 2.5 2.5 2.5 0 0 1-2.5-2.5zm-192 0v-30a2.5 2.5 0 0 1 2.5-2.5 2.5 2.5 0 0 1 2.5 2.5v30a2.5 2.5 0 0 1-2.5 2.5 2.5 2.5 0 0 1-2.5-2.5zm552-2v-26a2.5 2.5 0 0 1 2.5-2.5 2.5 2.5 0 0 1 2.5 2.5v26a2.5 2.5 0 0 1-2.5 2.5 2.5 2.5 0 0 1-2.5-2.5zm-72 0v-26a2.5 2.5 0 0 1 2.5-2.5 2.5 2.5 0 0 1 2.5 2.5v26a2.5 2.5 0 0 1-2.5 2.5 2.5 2.5 0 0 1-2.5-2.5zm-204 0v-26a2.5 2.5 0 0 1 2.5-2.5 2.5 2.5 0 0 1 2.5 2.5v26a2.5 2.5 0 0 1-2.5 2.5 2.5 2.5 0 0 1-2.5-2.5zm-60 0v-26a2.5 2.5 0 0 1 2.5-2.5 2.5 2.5 0 0 1 2.5 2.5v26a2.5 2.5 0 0 1-2.5 2.5 2.5 2.5 0 0 1-2.5-2.5zm132-1v-24a2.5 2.5 0 0 1 2.5-2.5 2.5 2.5 0 0 1 2.5 2.5v24a2.5 2.5 0 0 1-2.5 2.5 2.5 2.5 0 0 1-2.5-2.5zm-180 0v-24a2.5 2.5 0 0 1 2.5-2.5 2.5 2.5 0 0 1 2.5 2.5v24a2.5 2.5 0 0 1-2.5 2.5 2.5 2.5 0 0 1-2.5-2.5zm-72 0v-24a2.5 2.5 0 0 1 2.5-2.5 2.5 2.5 0 0 1 2.5 2.5v24a2.5 2.5 0 0 1-2.5 2.5 2.5 2.5 0 0 1-2.5-2.5zm-48-2v-20a2.5 2.5 0 0 1 2.5-2.5 2.5 2.5 0 0 1 2.5 2.5v20a2.5 2.5 0 0 1-2.5 2.5 2.5 2.5 0 0 1-2.5-2.5zm-84 0v-20a2.5 2.5 0 0 1 2.5-2.5 2.5 2.5 0 0 1 2.5 2.5v20a2.5 2.5 0 0 1-2.5 2.5 2.5 2.5 0 0 1-2.5-2.5zm552-1v-18a2.5 2.5 0 0 1 2.5-2.5 2.5 2.5 0 0 1 2.5 2.5v18a2.5 2.5 0 0 1-2.5 2.5 2.5 2.5 0 0 1-2.5-2.5zm-120 0v-18a2.5 2.5 0 0 1 2.5-2.5 2.5 2.5 0 0 1 2.5 2.5v18a2.5 2.5 0 0 1-2.5 2.5 2.5 2.5 0 0 1-2.5-2.5zm72-1v-16a2.5 2.5 0 0 1 2.5-2.5 2.5 2.5 0 0 1 2.5 2.5v16a2.5 2.5 0 0 1-2.5 2.5 2.5 2.5 0 0 1-2.5-2.5zm-180 0v-16a2.5 2.5 0 0 1 2.5-2.5 2.5 2.5 0 0 1 2.5 2.5v16a2.5 2.5 0 0 1-2.5 2.5 2.5 2.5 0 0 1-2.5-2.5zm-84 0v-16a2.5 2.5 0 0 1 2.5-2.5 2.5 2.5 0 0 1 2.5 2.5v16a2.5 2.5 0 0 1-2.5 2.5 2.5 2.5 0 0 1-2.5-2.5zm156-2v-12a2.5 2.5 0 0 1 2.5-2.5 2.5 2.5 0 0 1 2.5 2.5v12a2.5 2.5 0 0 1-2.5 2.5 2.5 2.5 0 0 1-2.5-2.5zm-180 0v-12a2.5 2.5 0 0 1 2.5-2.5 2.5 2.5 0 0 1 2.5 2.5v12a2.5 2.5 0 0 1-2.5 2.5 2.5 2.5 0 0 1-2.5-2.5zm-96 0v-12a2.5 2.5 0 0 1 2.5-2.5 2.5 2.5 0 0 1 2.5 2.5v12a2.5 2.5 0 0 1-2.5 2.5 2.5 2.5 0 0 1-2.5-2.5zm-48 0v-12a2.5 2.5 0 0 1 2.5-2.5 2.5 2.5 0 0 1 2.5 2.5v12a2.5 2.5 0 0 1-2.5 2.5 2.5 2.5 0 0 1-2.5-2.5zm-84 0v-12a2.5 2.5 0 0 1 2.5-2.5 2.5 2.5 0 0 1 2.5 2.5v12a2.5 2.5 0 0 1-2.5 2.5 2.5 2.5 0 0 1-2.5-2.5zm420-1v-10a2.5 2.5 0 0 1 2.5-2.5 2.5 2.5 0 0 1 2.5 2.5v10a2.5 2.5 0 0 1-2.5 2.5 2.5 2.5 0 0 1-2.5-2.5zm-48 0v-10a2.5 2.5 0 0 1 2.5-2.5 2.5 2.5 0 0 1 2.5 2.5v10a2.5 2.5 0 0 1-2.5 2.5 2.5 2.5 0 0 1-2.5-2.5zm-84 0v-10a2.5 2.5 0 0 1 2.5-2.5 2.5 2.5 0 0 1 2.5 2.5v10a2.5 2.5 0 0 1-2.5 2.5 2.5 2.5 0 0 1-2.5-2.5zm-168-2v-6a2.5 2.5 0 0 1 2.5-2.5 2.5 2.5 0 0 1 2.5 2.5v6a2.5 2.5 0 0 1-2.5 2.5 2.5 2.5 0 0 1-2.5-2.5zm-96 0v-6a2.5 2.5 0 0 1 2.5-2.5 2.5 2.5 0 0 1 2.5 2.5v6a2.5 2.5 0 0 1-2.5 2.5 2.5 2.5 0 0 1-2.5-2.5zm408-2v-2a2.5 2.5 0 0 1 2.5-2.5 2.5 2.5 0 0 1 2.5 2.5v2a2.5 2.5 0 0 1-2.5 2.5 2.5 2.5 0 0 1-2.5-2.5zm-156 0v-2a2.5 2.5 0 0 1 2.5-2.5 2.5 2.5 0 0 1 2.5 2.5v2a2.5 2.5 0 0 1-2.5 2.5 2.5 2.5 0 0 1-2.5-2.5z" transform="translate(917 2518)"/>
        <path id="Fill" class="cls-1" d="M0 0h8v98H0z" transform="translate(74 212)"/>
    </g>
</svg>
