<svg xmlns="http://www.w3.org/2000/svg" width="38" height="38">
    <defs>
        <style>
            .cls-2{fill:none;stroke:#d7dde2;stroke-linecap:round;stroke-linejoin:round;stroke-width:3.429px}
        </style>
    </defs>
    <g id="ic-payment_plan" transform="translate(-403 -381)">
        <g id="streamline-icon-programming-module_48x48" data-name="streamline-icon-programming-module@48x48" transform="translate(405.777 382.849)">
            <path id="패스_56" data-name="패스 56" class="cls-2" d="M33.882 8.373a1.184 1.184 0 0 0-.524-.425L18.385 1.925a1.062 1.062 0 0 0-.9 0L2.513 8.054a1.158 1.158 0 0 0-.524.318 1.323 1.323 0 0 0-.275.8v19.419a1.326 1.326 0 0 0 .8 1.221l14.973 6.129h.9l14.973-6.129a1.326 1.326 0 0 0 .8-1.221V9.275a1.327 1.327 0 0 0-.275-.9z" transform="translate(-1.714 -1.825)"/>
            <g id="그룹_46" data-name="그룹 46" transform="translate(.275 6.653)">
                <path id="선_10" data-name="선 10" class="cls-2" transform="translate(15.947 6.527)" d="M0 21.121V0"/>
                <path id="선_11" data-name="선 11" class="cls-2" transform="translate(15.947 6.527)" d="M0 0v21.121"/>
                <path id="패스_57" data-name="패스 57" class="cls-2" d="m2.091 10.423 15.947 6.527 15.947-6.527" transform="translate(-2.091 -10.423)"/>
            </g>
        </g>
    </g>
</svg>
