<svg xmlns="http://www.w3.org/2000/svg" width="15.998" height="15.998" viewBox="0 0 15.998 15.998">
    <defs>
        <style>
            .cls-2{fill:none;stroke:#555;stroke-linecap:round;stroke-linejoin:round;stroke-width:2px}
        </style>
    </defs>
    <g id="ic-payment-project" transform="translate(-847 -382)">
        <g id="streamline-icon-entertainment-play-list-1_48x48" data-name="streamline-icon-entertainment-play-list-1@48x48" transform="translate(847 382)">
            <g id="그룹_44" data-name="그룹 44">
                <g id="사각형_33" data-name="사각형 33" class="cls-2">
                    <rect width="15.998" height="15.998" rx="2" style="stroke:none"/>
                    <rect x="1" y="1" width="13.998" height="13.998" rx="1" style="fill:none"/>
                </g>
                <path id="패스_52" data-name="패스 52" d="M18.823 26.478v-4.2a.4.4 0 0 1 .56-.34l3.644 2.1a.406.406 0 0 1 0 .691l-3.644 2.107a.406.406 0 0 1-.56-.351z" transform="translate(-12.687 -14.09)" style="fill:#555"/>
                <path id="선_7" data-name="선 7" class="cls-2" transform="translate(1.038 5.338)" d="M0 0h13.654"/>
                <path id="선_8" data-name="선 8" class="cls-2" transform="translate(4.656 1.438)" d="M0 3.901 1.672 0"/>
                <path id="선_9" data-name="선 9" class="cls-2" transform="translate(9.671 1.438)" d="M0 3.901 1.672 0"/>
            </g>
        </g>
    </g>
</svg>
