<svg xmlns="http://www.w3.org/2000/svg" width="22" height="22" viewBox="0 0 22 22">
    <defs>
        <style>
            .cls-2,.cls-3{fill:none;stroke:#555;stroke-width:2px}.cls-2{stroke-linecap:square}
        </style>
    </defs>
    <g id="ic-refresh" transform="translate(1 1)">
        <path id="guide" transform="translate(-1 -1)" style="fill:none" d="M0 0h22v22H0z"/>
        <g id="그룹_19924" data-name="그룹 19924" transform="translate(2.19 12.385)">
            <path id="패스_28403" data-name="패스 28403" class="cls-2" d="M22 17.692 24.769 17l.692 2.769" transform="translate(-8.652 -17)"/>
            <path id="패스_28404" data-name="패스 28404" class="cls-3" d="M18.837 17a9.36 9.36 0 0 1-8.308 6.231 8.308 8.308 0 0 1-7.81-5.471" transform="translate(-2.719 -17)"/>
        </g>
        <g id="그룹_19925" data-name="그룹 19925" transform="translate(1 2)">
            <path id="패스_28405" data-name="패스 28405" class="cls-2" d="m4.462 9.077-2.769.692L1 7" transform="translate(-1 -3.538)"/>
            <path id="패스_28406" data-name="패스 28406" class="cls-3" d="M2 8.231C3.163 5.046 6.735 2 10.308 2a8.308 8.308 0 0 1 7.809 5.538" transform="translate(-1.308 -2)"/>
        </g>
    </g>
</svg>
