<svg xmlns="http://www.w3.org/2000/svg" width="16" height="16" viewBox="0 0 16 16">
    <g data-name="패스 44" style="stroke-linejoin:round;fill:none">
        <path d="M11.185 0h.026a7.849 7.849 0 0 1 6.156 12.741l1.145 2.659a.427.427 0 0 1-.223.562.436.436 0 0 1-.244.03l-4.2-.737a7.563 7.563 0 0 1-2.615.454A7.856 7.856 0 0 1 11.185 0z" style="stroke:none" transform="translate(-3.221)"/>
        <path d="M11.187 2a5.787 5.787 0 0 0-4.12 1.714 5.794 5.794 0 0 0-1.701 4.131 5.873 5.873 0 0 0 5.866 5.866h.037c.645 0 1.284-.112 1.897-.334a2 2 0 0 1 1.027-.09l1.333.234a2 2 0 0 1 .278-2.029 5.833 5.833 0 0 0 1.273-3.626A5.873 5.873 0 0 0 11.211 2h-.024m-.002-2h.026c4.338 0 7.866 3.528 7.866 7.866 0 1.77-.604 3.49-1.71 4.875l1.145 2.662a.427.427 0 0 1-.468.591l-4.197-.737a7.564 7.564 0 0 1-2.615.454c-4.338 0-7.866-3.528-7.866-7.866A7.83 7.83 0 0 1 11.186 0z" style="fill:#555;stroke:none" transform="translate(-3.221)"/>
    </g>
</svg>
