<svg xmlns="http://www.w3.org/2000/svg" width="16" height="16" viewBox="0 0 16 16">
    <path d="M12.5 7a3.479 3.479 0 0 1-2.748-1.357l-2.96 1.709A3.475 3.475 0 0 1 7 8.5c0 .087-.019.168-.026.253l2.777 1.6A3.483 3.483 0 1 1 9 12.5c0-.087.019-.168.025-.253l-2.777-1.6a3.5 3.5 0 1 1-.637-4.918l3.414-1.976C9.019 3.668 9 3.587 9 3.5A3.5 3.5 0 1 1 12.5 7zm0 7a1.5 1.5 0 1 0-1.5-1.5 1.5 1.5 0 0 0 1.5 1.5zm-9-7A1.5 1.5 0 1 0 5 8.5 1.5 1.5 0 0 0 3.5 7zm9-5A1.5 1.5 0 1 0 14 3.5 1.5 1.5 0 0 0 12.5 2z" style="fill:#555;fill-rule:evenodd"/>
</svg>
