<svg xmlns="http://www.w3.org/2000/svg" width="17.758" height="17.785" viewBox="0 0 17.758 17.785">
    <path d="M15.3 12.538A7.764 7.764 0 0 0 13.373 1.55 8.2 8.2 0 0 0 2.12 3.429a7.762 7.762 0 0 0 1.924 10.987 8.235 8.235 0 0 0 8.771.354l2.663 2.6a1.717 1.717 0 0 0 2.388.06 1.622 1.622 0 0 0 .063-2.331l-.063-.061-2.569-2.5zm-6.6.539a5.147 5.147 0 0 1-5.205-5.082A5.146 5.146 0 0 1 8.7 2.91a5.146 5.146 0 0 1 5.207 5.074 5.147 5.147 0 0 1-5.2 5.093z" transform="translate(-.635 -.1)" style="fill:#181818;fill-rule:evenodd"/>
</svg>
