<svg xmlns="http://www.w3.org/2000/svg" width="22.908" height="22" viewBox="0 0 22.908 22">
    <defs>
        <filter id="a" x="0" y="3.194" width="22.908" height="17.611" filterUnits="userSpaceOnUse">
            <feOffset dy="1"/>
            <feGaussianBlur stdDeviation=".5" result="blur"/>
            <feFlood flood-opacity=".302"/>
            <feComposite operator="in" in2="blur"/>
            <feComposite in="SourceGraphic"/>
        </filter>
    </defs>
    <g style="filter:url(#a)">
        <path data-name="합치기 1" d="M3.978 14.611c-.084-3.492 2.266-6.654 5.98-6.654a5.983 5.983 0 0 1 5.189 3.012 6.868 6.868 0 0 1 .776 3.643zm13.252 0a7.718 7.718 0 0 0-2.566-6.215 5.1 5.1 0 0 1 5.243 5.038v1.178zM0 14.609v-1.178a5.1 5.1 0 0 1 5.241-5.037 7.72 7.72 0 0 0-2.565 6.215zm13.286-8.076A4.629 4.629 0 0 0 14.4 2.061a2.575 2.575 0 0 1 3 2.492 2.532 2.532 0 0 1-4.114 1.979zM2.507 4.553a2.575 2.575 0 0 1 3-2.492 4.629 4.629 0 0 0 1.115 4.472 2.532 2.532 0 0 1-4.115-1.98zm4.124-1.225a3.328 3.328 0 1 1 3.328 3.327 3.327 3.327 0 0 1-3.328-3.327z" transform="translate(1.5 3.686)" style="fill:#fff"/>
    </g>
</svg>
