<svg xmlns="http://www.w3.org/2000/svg" width="24" height="24" viewBox="0 0 24 24">
    <path data-name="ic-top-bell" d="M23 19H1v-2h2l.015-5.882c0-4.68 3.02-8.463 7.391-9.02a1.372 1.372 0 0 1-.219-.746A1.343 1.343 0 0 1 11.279.019Q11.889 0 12.5 0a1.334 1.334 0 0 1 1.313 1.352 1.372 1.372 0 0 1-.219.746c4.371.557 7.422 4.34 7.422 9.02L21 17h2zM12.812 4.063q-.656-.007-1.312-.007c-3.8 0-6.488 3.123-6.488 7.062L5 17h14l.012-5.882c0-3.83-2.565-6.888-6.2-7.055zM11.985 24c-2.206 0-4-1.351-4-3.011h8c0 1.66-1.794 3.011-4 3.011z" style="fill:#555;fill-rule:evenodd"/>
</svg>
