<svg xmlns="http://www.w3.org/2000/svg" width="16.245" height="16.68" viewBox="0 0 16.245 16.68">
    <defs>
        <style>
            .cls-1{fill:#555}
        </style>
    </defs>
    <g id="ic-unlink" transform="translate(.245)">
        <path id="패스_38" data-name="패스 38" class="cls-1" d="M14.966 1.107a3.644 3.644 0 0 0-5.132 0L5.407 5.434a3.768 3.768 0 0 0 0 5.233c.1.1.3.2.4.3l1.512-1.508c-.1-.1-.3-.2-.4-.3a1.579 1.579 0 0 1 0-2.214l4.428-4.428a1.565 1.565 0 0 1 2.214 2.214l-1.312 1.306a4.446 4.446 0 0 1 .4 2.516l2.314-2.314a3.474 3.474 0 0 0 0-5.132z" transform="translate(-.098 -.05)"/>
        <path id="패스_39" data-name="패스 39" class="cls-1" d="m10.264 5.1-1.51 1.509a4.012 4.012 0 0 1 .4.3 1.579 1.579 0 0 1 0 2.214l-4.425 4.43a1.565 1.565 0 1 1-2.214-2.214l1.308-1.308c-.4-.805-.1-1.308-.4-2.516L1.107 9.83a3.629 3.629 0 0 0 5.132 5.132l4.428-4.428a3.644 3.644 0 0 0 0-5.132 1.878 1.878 0 0 1-.4-.3z" transform="translate(-.05 -.018)"/>
        <path id="선_4" data-name="선 4" transform="translate(.487 2)" style="stroke:#fff;fill:none;stroke-width:2px" d="m0 0 13 14"/>
        <path id="선_3" data-name="선 3" transform="translate(1.487 1)" style="stroke:#555;fill:none;stroke-width:2px" d="m0 0 13 14"/>
    </g>
</svg>
