<svg xmlns="http://www.w3.org/2000/svg" width="18" height="18" viewBox="0 0 18 18">
    <g data-name="그룹 91" transform="translate(2.25 4.5)">
        <g data-name="패스 86" style="fill:none;stroke-linecap:round;stroke-linejoin:round">
            <path d="M22.071 18.214s-3 4.5-6.75 4.5-6.75-4.5-6.75-4.5 3-4.5 6.75-4.5 6.75 4.5 6.75 4.5z" style="stroke:none" transform="translate(-8.571 -13.714)"/>
            <path d="M15.321 13.714c-3.75 0-6.75 4.5-6.75 4.5s3 4.5 6.75 4.5 6.75-4.5 6.75-4.5-3-4.5-6.75-4.5m0-2c2.045 0 4.168.962 6.138 2.78a16.129 16.129 0 0 1 2.277 2.61 2 2 0 0 1 0 2.22 16.129 16.129 0 0 1-2.277 2.61c-1.97 1.819-4.093 2.78-6.138 2.78-2.044 0-4.167-.961-6.137-2.78a16.129 16.129 0 0 1-2.277-2.61 2 2 0 0 1 0-2.22c.036-.053.898-1.337 2.277-2.61 1.97-1.818 4.093-2.78 6.137-2.78z" style="fill:#555;stroke:none" transform="translate(-8.571 -13.714)"/>
        </g>
        <ellipse data-name="타원 24" cx="1.687" cy="1.688" rx="1.687" ry="1.688" transform="translate(5.062 2.812)" style="stroke:#555;stroke-width:2px;fill:none;stroke-linecap:round;stroke-linejoin:round"/>
    </g>
</svg>
