<svg xmlns="http://www.w3.org/2000/svg" width="23" height="20" viewBox="0 0 23 20">
    <defs>
        <style>
            .cls-2{fill:#fae300}
        </style>
    </defs>
    <g id="ic_kakao2" transform="translate(0 -.019)">
        <path id="패스_12" data-name="패스 12" d="M11.5.019C5.148.019 0 3.871 0 8.624c0 3.093 2.182 5.8 5.456 7.322-.241.85-.871 3.079-1 3.556-.155.592.229.584.482.425.2-.125 3.151-2.025 4.425-2.845a15.309 15.309 0 0 0 2.135.149c6.351 0 11.5-3.854 11.5-8.606S17.851.019 11.5.019z" style="fill:#391b1b"/>
        <path id="패스_13" data-name="패스 13" class="cls-2" d="M6.385 6.068H3.151a.52.52 0 1 0 0 1.038H4.2v3.657a.494.494 0 0 0 .158.358.553.553 0 0 0 .378.148h.118a.551.551 0 0 0 .377-.148.492.492 0 0 0 .159-.358V7.106h.993a.52.52 0 1 0 0-1.038z" transform="translate(0 .033)"/>
        <path id="패스_14" data-name="패스 14" class="cls-2" d="M14.263 10.689h-1.427V6.674a.568.568 0 1 0-1.133 0V11a.614.614 0 0 0 .009.1.512.512 0 0 0-.009.1.491.491 0 0 0 .474.508h2.086a.508.508 0 0 0 0-1.014z" transform="translate(.583 .034)"/>
        <path id="패스_15" data-name="패스 15" class="cls-2" d="m18.969 10.841-1.6-2.218L18.814 7.1a.551.551 0 0 0 0-.749.485.485 0 0 0-.71 0l-1.793 1.89V6.67a.571.571 0 1 0-1.141 0v4.43a.571.571 0 1 0 1.141 0V9.734l.326-.343 1.516 2.1a.492.492 0 0 0 .714.108.558.558 0 0 0 .102-.758z" transform="translate(.948 .034)"/>
        <path id="패스_16" data-name="패스 16" class="cls-2" d="m8.143 9.546.731-2.131h.023l.731 2.129zm3.1 1.439L9.649 6.541l-.005-.005a.78.78 0 0 0-.744-.468.76.76 0 0 0-.773.56.7.7 0 0 0-.027.072l-1.569 4.285a.543.543 0 0 0 .323.687.525.525 0 0 0 .673-.33l.27-.789h2.177l.27.789a.525.525 0 0 0 .673.33.541.541 0 0 0 .322-.687z" transform="translate(.357 .034)"/>
    </g>
</svg>
