<svg xmlns="http://www.w3.org/2000/svg" width="16.001" height="16">
    <path d="M15.2 16H.8a.756.756 0 0 1-.8-.8V2.8a.746.746 0 0 1 .8-.779L2 2 1.99.786C1.99.314 2.4 0 3 0s1 .314 1 .786v1.23h8V.8c0-.48.519-.8 1-.8s1.008.315 1.008.787L14 2l1.2.017a.793.793 0 0 1 .8.783v12.4a.8.8 0 0 1-.8.8zM13.992 4.987H2.005v9.006h11.987V4.987zM5.6 8.656H4V6.988h1.6zm0 3.335H4v-1.668h1.6zm3.2-3.335H7.2V6.988h1.6zm0 3.335H7.2v-1.668h1.6zM12 8.656h-1.6V6.988H12zm0 3.335h-1.6v-1.668H12z" transform="translate(.002 .001)" style="fill:#555;fill-rule:evenodd"/>
</svg>
