<svg xmlns="http://www.w3.org/2000/svg" width="255.001" height="29">
    <path data-name="img-logo" d="M28.629 20.683c1.151-1.934 3.454-4.037 6.827-6.56a19.668 19.668 0 0 0 3.866-3.534 3.838 3.838 0 0 0 .821-2.271 2.976 2.976 0 0 0-.821-2.018 2.506 2.506 0 0 0-1.836-.773 2.868 2.868 0 0 0-.3.016 2.873 2.873 0 0 0-2.137.841c-.576.589-.9 1.093-1.152 3.028h-6.913a10.7 10.7 0 0 1 1.48-5.212 7.114 7.114 0 0 1 3.044-2.608 13.645 13.645 0 0 1 4.937-.94c.191 0 .382 0 .573.012.243-.01.485-.015.725-.015a14.051 14.051 0 0 1 4.948.856A6.992 6.992 0 0 1 45.9 4.112a6.736 6.736 0 0 1 1.151 3.954 8.545 8.545 0 0 1-1.315 4.458 19.044 19.044 0 0 1-4.854 4.71c-1.4 1.009-2.3 1.682-2.8 2.1s-.986.925-1.643 1.514H47.3v5.72H26.49a11.1 11.1 0 0 1 2.139-5.888zM20.24 23.8a8.14 8.14 0 0 1-2.961 2.019 15.113 15.113 0 0 1-5.1.84A28.463 28.463 0 0 1 8.4 26.4a9.73 9.73 0 0 1-3.372-1.009 7.291 7.291 0 0 1-2.467-2.018A7.761 7.761 0 0 1 1 20.6a13.934 13.934 0 0 1-.658-4.121V2.01h7.152v14.719a4.355 4.355 0 0 0 1.066 3.113 4.43 4.43 0 0 0 5.923 0 4.23 4.23 0 0 0 1.068-3.113V2.01h7.4v14.383a13.371 13.371 0 0 1-.657 4.038A8.825 8.825 0 0 1 20.24 23.8z" transform="translate(-.337 -.649)" style="fill-rule:evenodd;fill:#282828"/>
    <text data-name="Video collaboration" transform="translate(63.001 23)" style="font-size:20px;font-family:NotoSansCJKkr-Bold,Noto Sans CJK KR;font-weight:700;fill:#282828"><tspan x="0" y="0">Video collaboration</tspan></text>
</svg>
