<svg xmlns="http://www.w3.org/2000/svg" width="18" height="18" viewBox="0 0 18 18">
    <path data-name="패스 4" d="M14 5a9 9 0 1 1-9 9 9 9 0 0 1 9-9z" transform="translate(-5 -5)" style="fill-rule:evenodd;fill:#aaa"/>
    <path data-name="패스 5" d="M17.761 19.807c.165.073.2.215.249.365a6.043 6.043 0 0 0 .245.7.457.457 0 0 0 .241.187 36.963 36.963 0 0 1 3.656 1.589 2.4 2.4 0 0 1 .39.253 8.985 8.985 0 0 1-13.7.026 3.688 3.688 0 0 1 .4-.247c.406-.218.81-.442 1.226-.641s.82-.357 1.232-.53c.389-.163.781-.317 1.166-.484a.346.346 0 0 0 .16-.167 9.01 9.01 0 0 0 .227-.66c.052-.17.084-.336.3-.381a.238.238 0 0 0 .129-.169 5.173 5.173 0 0 0 .1-.564.319.319 0 0 0-.076-.211 2.082 2.082 0 0 1-.509-1.112 5.52 5.52 0 0 0-.213-.617q-.121-.42-.214-.848c-.023-.1-.01-.213-.027-.319-.025-.153-.021-.271.164-.33.052-.016.093-.138.1-.213.01-.453 0-.343.006-.8 0-.262 0-.526.017-.789a1.447 1.447 0 0 1 .507-1.054l.043-.039a2.252 2.252 0 0 1 .178-.141l.035-.026a2.664 2.664 0 0 1 .241-.147l.039-.02c.071-.038.146-.073.224-.105l.072-.029a3.67 3.67 0 0 1 .25-.087l.04-.014q.148-.042.3-.073a3.44 3.44 0 0 1 .328-.049l.094-.01a3.947 3.947 0 0 1 .717.005l.078.008c.124.014.246.033.365.058h.007a3.555 3.555 0 0 1 .35.1l.032.01a3.264 3.264 0 0 1 .333.134 1.81 1.81 0 0 1 1.136 1.343 1.231 1.231 0 0 1 .01.136l.007-.008c.006.057.01.115.01.174v1.42c0 .135-.01.27.157.33a.158.158 0 0 1 .07.128c-.029.339-.065.677-.1 1.016a.084.084 0 0 1-.011.038 8.872 8.872 0 0 0-.562 1.468.218.218 0 0 1-.026.052c-.4.475-.278.636-.287 1.181a.2.2 0 0 0 .085.161z" transform="translate(-6.683 -8.079)" style="fill:#e0e0e0;fill-rule:evenodd"/>
</svg>
