<svg xmlns="http://www.w3.org/2000/svg" width="180" height="114">
    <defs>
        <linearGradient id="a" x1=".5" x2=".5" y2="1" gradientUnits="objectBoundingBox">
            <stop offset="0" stop-color="#edf0f5"/>
            <stop offset="1" stop-color="#d6dce1"/>
        </linearGradient>
    </defs>
    <path d="M0 0h180v114H0z" style="fill:transparent;fill-rule:evenodd"/>
    <path data-name="패스 28" d="m72.113 65.338-14.03-7.015a5.352 5.352 0 0 1-2.958-4.787v-5.5a20.976 20.976 0 0 0 1.328-1.707 32.26 32.26 0 0 0 4.361-8.789 4.4 4.4 0 0 0 3.124-4.192v-5.879a4.381 4.381 0 0 0-1.469-3.256v-8.494S64.212 2.5 46.313 2.5 30.156 15.719 30.156 15.719v8.494a4.381 4.381 0 0 0-1.469 3.256v5.875a4.405 4.405 0 0 0 2.031 3.7 29.132 29.132 0 0 0 5.312 10.991V53.4a5.349 5.349 0 0 1-2.789 4.7l-13.1 7.148A11.778 11.778 0 0 0 14 75.586v4.757h64.625v-4.469a11.782 11.782 0 0 0-6.512-10.536z" transform="translate(53.969 14.844)" style="fill:url(#a)"/>
    <path data-name="패스 29" d="m26.7 61.964 8.735-4.764c-.05-.048-.007-.063.1-.053l4.265-2.33a5.351 5.351 0 0 0 2.789-4.7V44.75a27.952 27.952 0 0 1-3.073-4.881c-.2-.394-.394-.809-.586-1.24l-.079-.178c-.2-.445-.386-.9-.567-1.387-.012-.031-.022-.065-.034-.1a26.675 26.675 0 0 1-.449-1.316l-.113-.369c-.148-.5-.288-1-.408-1.525a4.394 4.394 0 0 1-2.033-3.694v-5.872a4.381 4.381 0 0 1 1.469-3.256v-8.3A16.165 16.165 0 0 0 26.438 9.5C12.392 9.5 11.75 21.25 11.75 21.25v7.336a3.981 3.981 0 0 0-1.469 2.814v5.075a3.807 3.807 0 0 0 1.754 3.193 21.078 21.078 0 0 0 5.523 9.493v4.637a4.621 4.621 0 0 1-2.409 4.057L5.3 64.023A10.175 10.175 0 0 0 0 72.954v4.108h20.563v-4.757A11.778 11.778 0 0 1 26.7 61.964z" transform="translate(47.406 18.125)" style="opacity:.5;fill:url(#a)"/>
</svg>
