<svg xmlns="http://www.w3.org/2000/svg" width="59" height="44.5" viewBox="0 0 59 44.5">
    <defs>
        <linearGradient id="a" y1="1" x2="0" gradientUnits="objectBoundingBox">
            <stop offset="0" stop-color="#cad1d8" stop-opacity=".502"/>
            <stop offset="1" stop-color="#cad1d8" stop-opacity="0"/>
        </linearGradient>
        <filter id="b" x="0" y="2.992" width="59" height="41.508" filterUnits="userSpaceOnUse">
            <feOffset dy="1"/>
            <feGaussianBlur stdDeviation=".5" result="blur"/>
            <feFlood flood-opacity=".161"/>
            <feComposite operator="in" in2="blur"/>
            <feComposite in="SourceGraphic"/>
        </filter>
    </defs>
    <path data-name="패스 1" d="M19.119 1H2.764A1.749 1.749 0 0 0 1 2.726v6.892h34.3v-3.4a1.739 1.739 0 0 0-1.765-1.7h-7.387a3.91 3.91 0 0 1-2.353-.838l-2.47-1.9A3.438 3.438 0 0 0 19.119 1z" transform="translate(.5 -1.003)" style="fill-rule:evenodd;fill:#ecedef"/>
    <path data-name="패스 2" d="M19.119 1H2.764A1.749 1.749 0 0 0 1 2.726v6.892h34.3v-3.4a1.739 1.739 0 0 0-1.765-1.7h-7.387a3.91 3.91 0 0 1-2.353-.838l-2.47-1.9A3.438 3.438 0 0 0 19.119 1z" transform="translate(.5 -1.003)" style="fill:url(#a)"/>
    <g style="filter:url(#b)">
        <path data-name="패스 3" d="M3.333 16h51.334A2.218 2.218 0 0 1 57 18.081v34.345a2.218 2.218 0 0 1-2.333 2.082H3.333A2.218 2.218 0 0 1 1 52.426V18.081A2.218 2.218 0 0 1 3.333 16z" transform="translate(.5 -12.51)" style="fill:#eff2f4;fill-rule:evenodd"/>
    </g>
</svg>
