<svg xmlns="http://www.w3.org/2000/svg" width="180.705" height="20.073" viewBox="0 0 180.705 20.073">
    <path d="M21.073 15.333a19.311 19.311 0 0 1 5-4.808 14.415 14.415 0 0 0 2.834-2.59 2.813 2.813 0 0 0 .6-1.664 2.181 2.181 0 0 0-.6-1.479 1.837 1.837 0 0 0-1.346-.567 2.1 2.1 0 0 0-.223.012 2.106 2.106 0 0 0-1.566.616c-.422.432-.663.8-.844 2.219h-5.06a7.84 7.84 0 0 1 1.084-3.822 5.214 5.214 0 0 1 2.231-1.911A10 10 0 0 1 26.8.651c.14 0 .28 0 .42.009.178-.007.356-.011.532-.011a10.3 10.3 0 0 1 3.626.627 5.125 5.125 0 0 1 2.352 1.911 4.937 4.937 0 0 1 .843 2.9 6.263 6.263 0 0 1-.964 3.267 13.958 13.958 0 0 1-3.555 3.446c-1.024.74-1.688 1.233-2.049 1.541s-.723.678-1.2 1.11h7.957v4.192H19.505a8.137 8.137 0 0 1 1.568-4.316zm-6.148 2.281a5.966 5.966 0 0 1-2.17 1.48 11.077 11.077 0 0 1-3.737.616 20.861 20.861 0 0 1-2.773-.185 7.132 7.132 0 0 1-2.471-.74 5.343 5.343 0 0 1-1.808-1.479A5.688 5.688 0 0 1 .82 15.27a10.212 10.212 0 0 1-.483-3.02V1.647h5.245v10.788a3.192 3.192 0 0 0 .782 2.282 3.247 3.247 0 0 0 4.341 0 3.1 3.1 0 0 0 .783-2.282V1.647h5.425v10.541a9.8 9.8 0 0 1-.482 2.96 6.468 6.468 0 0 1-1.507 2.466z" transform="translate(-.337 -.649)" style="fill-rule:evenodd;fill:#ccd0d6"/>
    <text data-name="Video collaboration" transform="translate(45.705 16.073)" style="font-size:14px;font-family:NotoSansCJKkr-Bold,Noto Sans CJK KR;font-weight:700;fill:#ccd0d6"><tspan x="0" y="0">Video collaboration</tspan></text>
</svg>
