<svg xmlns="http://www.w3.org/2000/svg" width="57.484" height="7.708" viewBox="0 0 57.484 7.708">
    <path d="M8.723 6.587a7.81 7.81 0 0 1 2.024-1.944A5.83 5.83 0 0 0 11.892 3.6a1.138 1.138 0 0 0 .243-.673.882.882 0 0 0-.243-.6.743.743 0 0 0-.544-.229.85.85 0 0 0-.09 0 .852.852 0 0 0-.633.249c-.171.175-.268.324-.341.9H8.236A3.171 3.171 0 0 1 8.674 1.7a2.109 2.109 0 0 1 .9-.773A4.045 4.045 0 0 1 11.04.65h.385a4.165 4.165 0 0 1 1.466.25 2.073 2.073 0 0 1 .951.773 2 2 0 0 1 .341 1.172 2.533 2.533 0 0 1-.39 1.321 5.645 5.645 0 0 1-1.439 1.4c-.414.3-.683.5-.829.623s-.292.274-.487.449h3.218v1.7H8.089a3.291 3.291 0 0 1 .634-1.751zm-2.486.923a2.413 2.413 0 0 1-.878.6 4.48 4.48 0 0 1-1.511.249 8.436 8.436 0 0 1-1.122-.075 2.884 2.884 0 0 1-1-.3A2.161 2.161 0 0 1 1 7.385a2.3 2.3 0 0 1-.463-.823 4.13 4.13 0 0 1-.2-1.221V1.052h2.121v4.363a1.291 1.291 0 0 0 .316.923 1.313 1.313 0 0 0 1.756 0 1.254 1.254 0 0 0 .317-.923V1.052h2.194v4.264a3.963 3.963 0 0 1-.195 1.2 2.616 2.616 0 0 1-.609 1z" transform="translate(-.337 -.649)" style="fill-rule:evenodd;fill:#ccd0d6"/>
    <text data-name="Video collaboration" transform="translate(18.484 5.03)" style="font-size:4px;font-family:NotoSansCJKkr-Bold,Noto Sans CJK KR;font-weight:700;fill:#ccd0d6"><tspan x="0" y="0">Video collaboration</tspan></text>
</svg>
