<svg xmlns="http://www.w3.org/2000/svg" width="24" height="24" viewBox="0 0 24 24">
    <path data-name="패스 4" d="M17 5A12 12 0 1 1 5 17 12 12 0 0 1 17 5z" transform="translate(-5 -5)" style="fill-rule:evenodd;fill:#aaa"/>
    <path data-name="패스 5" d="M20.732 22.4c.22.1.271.286.332.487a8.058 8.058 0 0 0 .327.928.61.61 0 0 0 .322.249 49.285 49.285 0 0 1 4.875 2.119 3.206 3.206 0 0 1 .52.338 11.98 11.98 0 0 1-18.262.035 4.917 4.917 0 0 1 .533-.329c.542-.291 1.08-.589 1.634-.854.537-.254 1.094-.476 1.643-.707.518-.217 1.041-.423 1.555-.645a.462.462 0 0 0 .214-.222c.114-.288.211-.583.3-.88.07-.227.112-.448.4-.508a.317.317 0 0 0 .172-.226 6.9 6.9 0 0 0 .134-.752.425.425 0 0 0-.1-.282 2.776 2.776 0 0 1-.679-1.483 7.36 7.36 0 0 0-.284-.823q-.161-.561-.285-1.131c-.031-.137-.013-.284-.036-.425-.034-.2-.028-.361.218-.44.07-.022.124-.185.128-.284.013-.6 0-.457.007-1.064 0-.349 0-.7.023-1.052a1.929 1.929 0 0 1 .676-1.4l.058-.052a3 3 0 0 1 .243-.197l.047-.035a3.552 3.552 0 0 1 .321-.2l.052-.026c.1-.05.2-.1.3-.14a4.83 4.83 0 0 1 .433-.155c.017-.006.035-.013.053-.018q.2-.056.406-.1c.035-.008.07-.013.107-.019a5.99 5.99 0 0 1 .331-.047l.125-.013c.148-.012.3-.02.449-.02.173 0 .342.011.508.026l.1.011c.166.019.328.044.486.078h.01a4.741 4.741 0 0 1 .467.129l.043.014a4.351 4.351 0 0 1 .444.179 2.414 2.414 0 0 1 1.514 1.791 1.641 1.641 0 0 1 .014.182l.01-.01c.007.076.013.154.013.233v1.893c0 .18-.014.36.21.439a.211.211 0 0 1 .093.171c-.038.452-.086.9-.134 1.355a.112.112 0 0 1-.014.05 11.83 11.83 0 0 0-.749 1.957.29.29 0 0 1-.035.07c-.538.634-.37.847-.382 1.575a.273.273 0 0 0 .113.215z" transform="translate(-5.962 -6.759)" style="fill:#e0e0e0;fill-rule:evenodd"/>
</svg>
