<svg xmlns="http://www.w3.org/2000/svg" width="68" height="68">
    <g data-name="패스 4" style="fill-rule:evenodd;fill:#aaa">
        <path d="M37 70c-4.455 0-8.777-.873-12.846-2.594a32.887 32.887 0 0 1-10.489-7.071 32.887 32.887 0 0 1-7.071-10.49A32.797 32.797 0 0 1 4 37c0-4.455.873-8.777 2.594-12.846a32.887 32.887 0 0 1 7.071-10.489c3.03-3.03 6.56-5.41 10.49-7.071A32.797 32.797 0 0 1 37 4c4.454 0 8.776.873 12.845 2.594a32.89 32.89 0 0 1 10.49 7.071c3.03 3.03 5.409 6.56 7.071 10.49A32.794 32.794 0 0 1 70 37c0 4.455-.873 8.777-2.594 12.846a32.888 32.888 0 0 1-7.072 10.489 32.89 32.89 0 0 1-10.49 7.071A32.794 32.794 0 0 1 37 70z" style="stroke:none" transform="translate(-3 -3)"/>
        <path d="M37 5C19.326 5 5 19.326 5 37s14.326 32 32 32c17.672 0 32-14.326 32-32S54.672 5 37 5m0-2c4.589 0 9.042.9 13.234 2.673a33.885 33.885 0 0 1 10.807 7.285 33.884 33.884 0 0 1 7.286 10.807A33.789 33.789 0 0 1 71 37c0 4.59-.9 9.042-2.673 13.235a33.884 33.884 0 0 1-7.286 10.807 33.885 33.885 0 0 1-10.807 7.285A33.788 33.788 0 0 1 37 71c-4.59 0-9.042-.9-13.235-2.673a33.882 33.882 0 0 1-10.807-7.285 33.882 33.882 0 0 1-7.285-10.807A33.791 33.791 0 0 1 3 37c0-4.59.9-9.042 2.673-13.235a33.882 33.882 0 0 1 7.285-10.807 33.882 33.882 0 0 1 10.807-7.285A33.791 33.791 0 0 1 37 3z" style="fill:#fff;stroke:none" transform="translate(-3 -3)"/>
    </g>
    <path data-name="패스 5" d="M40.883 39.571c.592.259.732.761.9 1.294a21.218 21.218 0 0 0 .881 2.466 1.64 1.64 0 0 0 .867.662 133.825 133.825 0 0 1 13.14 5.631 8.655 8.655 0 0 1 1.4.9 32.588 32.588 0 0 1-49.222.094 13.285 13.285 0 0 1 1.435-.875c1.46-.773 2.911-1.565 4.4-2.27 1.447-.676 2.947-1.266 4.429-1.88 1.4-.576 2.806-1.124 4.191-1.714a1.236 1.236 0 0 0 .576-.59c.307-.765.57-1.551.815-2.338.188-.6.3-1.192 1.086-1.349a.844.844 0 0 0 .463-.6 18.1 18.1 0 0 0 .362-2 1.121 1.121 0 0 0-.275-.749 7.332 7.332 0 0 1-1.831-3.944 19.376 19.376 0 0 0-.764-2.187q-.434-1.49-.768-3.006c-.083-.365-.034-.755-.1-1.13-.091-.542-.075-.959.588-1.17.188-.058.334-.49.344-.753.036-1.6.008-1.214.02-2.827.006-.929.006-1.866.063-2.8v.008a5.1 5.1 0 0 1 1.821-3.733l.156-.14a8.077 8.077 0 0 1 .639-.5l.125-.094a9.6 9.6 0 0 1 .865-.522l.142-.07c.257-.134.526-.257.8-.373.087-.036.172-.072.259-.1.291-.112.59-.215.9-.307.046-.016.093-.034.144-.048q.531-.149 1.1-.257c.093-.02.19-.034.287-.05.293-.052.592-.092.891-.124.113-.012.224-.026.338-.036.4-.032.8-.054 1.209-.054.467 0 .922.03 1.369.07l.281.03c.447.05.885.118 1.31.207l.026.006a12.919 12.919 0 0 1 1.259.343l.115.036a11.826 11.826 0 0 1 1.2.476c2.3 1.072 3.859 2.793 4.081 4.76a4.3 4.3 0 0 1 .036.482l.026-.028c.02.2.034.409.034.618.006 2.346.006 2.685.006 5.031-.006.478-.036.957.566 1.168a.559.559 0 0 1 .251.454c-.1 1.2-.232 2.4-.362 3.6a.294.294 0 0 1-.038.134c-1.1 1.573-1.231 3.508-2.019 5.2a.767.767 0 0 1-.1.185c-1.451 1.684-1 2.252-1.031 4.186a.722.722 0 0 0 .305.572z" transform="translate(.564 4.206)" style="fill:#e0e0e0;fill-rule:evenodd"/>
</svg>
