<svg xmlns="http://www.w3.org/2000/svg" width="100" height="100" viewBox="0 0 100 100">
    <path data-name="패스 4" d="M55 5A50 50 0 1 1 5 55 50 50 0 0 1 55 5z" transform="translate(-5 -5)" style="fill-rule:evenodd;fill:#aaa"/>
    <path data-name="패스 5" d="M58.654 54.649c.921.4 1.138 1.178 1.392 2a32.739 32.739 0 0 0 1.37 3.816 2.548 2.548 0 0 0 1.348 1.024 208.567 208.567 0 0 1 20.428 8.715 13.464 13.464 0 0 1 2.178 1.388 50.816 50.816 0 0 1-76.525.145 20.673 20.673 0 0 1 2.231-1.354c2.269-1.2 4.526-2.422 6.848-3.514 2.25-1.046 4.582-1.959 6.886-2.909 2.172-.892 4.362-1.74 6.515-2.653a1.917 1.917 0 0 0 .9-.913c.478-1.185.886-2.4 1.267-3.619.292-.935.471-1.845 1.688-2.089a1.307 1.307 0 0 0 .72-.929 27.894 27.894 0 0 0 .563-3.091 1.73 1.73 0 0 0-.427-1.16 11.325 11.325 0 0 1-2.844-6.1A29.9 29.9 0 0 0 32 40.027q-.675-2.306-1.194-4.652c-.129-.565-.053-1.169-.151-1.749-.141-.839-.116-1.484.915-1.811.292-.089.519-.759.534-1.166.057-2.483.013-1.879.031-4.374.009-1.438.009-2.887.1-4.328l.006.012a7.879 7.879 0 0 1 2.829-5.779l.242-.216a12.549 12.549 0 0 1 .993-.774l.195-.145a14.937 14.937 0 0 1 1.345-.808l.22-.108c.4-.207.817-.4 1.251-.577.135-.056.267-.111.4-.16.453-.173.918-.333 1.4-.475.072-.025.145-.052.223-.074q.825-.231 1.7-.4c.145-.031.3-.052.446-.077.456-.08.921-.142 1.386-.191.176-.019.349-.04.525-.056a23.69 23.69 0 0 1 1.879-.083c.726 0 1.433.046 2.128.108l.437.046c.695.077 1.377.182 2.037.321l.041.009a20.159 20.159 0 0 1 1.958.531l.179.056a18.435 18.435 0 0 1 1.861.737c3.577 1.66 6 4.322 6.345 7.367a6.631 6.631 0 0 1 .057.747l.041-.043c.031.315.053.632.053.956.009 3.631.009 4.155.009 7.786-.009.74-.057 1.481.88 1.808a.864.864 0 0 1 .39.7c-.16 1.86-.361 3.711-.563 5.574a.454.454 0 0 1-.06.207c-1.71 2.434-1.914 5.429-3.14 8.049a1.185 1.185 0 0 1-.148.287c-2.257 2.607-1.553 3.486-1.6 6.478a1.116 1.116 0 0 0 .475.885z" transform="translate(2.892 10.957)" style="fill:#e0e0e0;fill-rule:evenodd"/>
</svg>
