<svg xmlns="http://www.w3.org/2000/svg" width="198" height="22">
    <path data-name="사각형 2169" style="fill:none" d="M0 0h198v22H0z"/>
    <path d="M24.182 17.534c.97-1.63 2.912-3.4 5.754-5.529a16.577 16.577 0 0 0 3.258-2.979 3.235 3.235 0 0 0 .692-1.914 2.508 2.508 0 0 0-.692-1.7 2.112 2.112 0 0 0-1.548-.652 2.417 2.417 0 0 0-.257.013 2.421 2.421 0 0 0-1.8.709c-.486.5-.762.921-.971 2.552H22.8a9.015 9.015 0 0 1 1.247-4.4 6 6 0 0 1 2.565-2.2A11.5 11.5 0 0 1 30.77.652c.161 0 .322 0 .483.01.2-.008.409-.013.611-.013a11.843 11.843 0 0 1 4.17.721 5.893 5.893 0 0 1 2.7 2.2 5.677 5.677 0 0 1 .97 3.333 7.2 7.2 0 0 1-1.104 3.755 16.051 16.051 0 0 1-4.091 3.97c-1.178.85-1.941 1.418-2.357 1.772s-.831.78-1.385 1.276h9.15V22.5H22.38a9.358 9.358 0 0 1 1.8-4.963zm-7.07 2.623a6.861 6.861 0 0 1-2.5 1.7 12.738 12.738 0 0 1-4.3.708 23.99 23.99 0 0 1-3.189-.212 8.2 8.2 0 0 1-2.842-.85 6.145 6.145 0 0 1-2.08-1.7 6.541 6.541 0 0 1-1.309-2.34 11.744 11.744 0 0 1-.555-3.473V1.8h6.032v12.4a3.671 3.671 0 0 0 .9 2.624 3.733 3.733 0 0 0 4.992 0 3.566 3.566 0 0 0 .9-2.624V1.8H19.4v12.119a11.27 11.27 0 0 1-.554 3.4 7.438 7.438 0 0 1-1.733 2.835z" transform="translate(.113 -.649)" style="fill-rule:evenodd;fill:#e5e5e5"/>
    <text data-name="Video collaboration" transform="translate(53.55 17)" style="font-size:15px;font-family:NotoSansCJKkr-Bold,Noto Sans CJK KR;font-weight:700;fill:#e5e5e5"><tspan x="0" y="0">Video collaboration</tspan></text>
</svg>
