<svg xmlns="http://www.w3.org/2000/svg" width="64" height="64">
    <defs>
        <linearGradient id="a" x1=".5" x2=".5" y2="1" gradientUnits="objectBoundingBox">
            <stop offset="0" stop-color="#edf0f5"/>
            <stop offset="1" stop-color="#d6dce1"/>
        </linearGradient>
    </defs>
    <path data-name="패스 28" d="m53.566 45.283-9.552-4.776A3.644 3.644 0 0 1 42 37.248V33.5a14.282 14.282 0 0 0 .9-1.162 21.964 21.964 0 0 0 2.969-5.984A3 3 0 0 0 48 23.5v-4a2.983 2.983 0 0 0-1-2.217V11.5s1.187-9-11-9-11 9-11 9v5.783a2.983 2.983 0 0 0-1 2.217v4a3 3 0 0 0 1.383 2.517A19.834 19.834 0 0 0 29 33.5v3.655a3.642 3.642 0 0 1-1.9 3.2l-8.92 4.865A8.019 8.019 0 0 0 14 52.261V55.5h44v-3.043a8.022 8.022 0 0 0-4.434-7.174z" style="fill:url(#a)" transform="translate(3 2.5)"/>
    <path data-name="패스 29" d="m18.18 45.22 5.946-3.243c-.034-.033 0-.043.065-.036l2.91-1.587a3.643 3.643 0 0 0 1.9-3.2V33.5a19.031 19.031 0 0 1-2.092-3.323 21.667 21.667 0 0 1-.4-.844l-.054-.121c-.133-.3-.263-.616-.386-.944l-.023-.065c-.108-.29-.209-.589-.306-.9l-.077-.251c-.1-.338-.2-.682-.278-1.038A2.992 2.992 0 0 1 24 23.5v-4a2.983 2.983 0 0 1 1-2.217v-5.648A11.006 11.006 0 0 0 18 9.5c-9.563 0-10 8-10 8v4.995a2.711 2.711 0 0 0-1 1.914v3.455a2.592 2.592 0 0 0 1.194 2.174 14.351 14.351 0 0 0 3.76 6.463v3.157a3.146 3.146 0 0 1-1.64 2.762l-6.7 4.2A6.928 6.928 0 0 0 0 52.7v2.8h14v-3.239a8.019 8.019 0 0 1 4.18-7.041z" style="opacity:.5;fill:url(#a)" transform="translate(3 2.5)"/>
</svg>
