<svg id="img-payment" xmlns="http://www.w3.org/2000/svg" width="180" height="114">
    <defs>
        <linearGradient id="linear-gradient" x1=".5" x2=".5" y2="1" gradientUnits="objectBoundingBox">
            <stop offset="0" stop-color="#edf0f5"/>
            <stop offset="1" stop-color="#d6dce1"/>
        </linearGradient>
        <style>
            .cls-3{fill:#576d7e}.cls-5{fill:#fafbfc}
        </style>
    </defs>
    <path id="guide" d="M0 0h180v114H0z" style="fill:transparent;fill-rule:evenodd"/>
    <g id="그룹_53" data-name="그룹 53" transform="translate(-1170.522 -773.858)">
        <rect id="사각형_35" data-name="사각형 35" width="93" height="69" rx="10" transform="translate(1214.522 796.858)" style="fill:url(#linear-gradient)"/>
        <path id="빼기_3" data-name="빼기 3" class="cls-3" d="M-11212.478-829.142h-12v-3.425h15v.426a3 3 0 0 1-3 2.999zm-15 0h-3a3 3 0 0 1-3-3v-11a3 3 0 0 1 3-3h3v16.998zm18-6.307h-15v-3.242h15v3.241zm0-6.125h-15v-4.566h12a3 3 0 0 1 3 3v1.568z" transform="translate(12460 1656)"/>
        <path id="빼기_2" data-name="빼기 2" d="M9.05 18.095A9.047 9.047 0 1 1 9.05 0a8.946 8.946 0 0 1 4.1.983 11.764 11.764 0 0 0 0 16.129 8.944 8.944 0 0 1-4.1.983z" transform="translate(1265.093 810.097)" style="opacity:.5;fill:#576d7e"/>
        <circle id="타원_19" data-name="타원 19" class="cls-3" cx="9" cy="9" r="9" transform="translate(1277.522 809.858)"/>
        <rect id="사각형_40" data-name="사각형 40" class="cls-5" width="13" height="6" rx="2" transform="translate(1226.522 838.858)"/>
        <rect id="사각형_41" data-name="사각형 41" class="cls-5" width="14" height="6" rx="2" transform="translate(1244.522 838.858)"/>
        <rect id="사각형_42" data-name="사각형 42" class="cls-5" width="13" height="6" rx="2" transform="translate(1263.522 838.858)"/>
        <rect id="사각형_43" data-name="사각형 43" class="cls-5" width="14" height="6" rx="2" transform="translate(1281.522 838.858)"/>
        <rect id="사각형_44" data-name="사각형 44" class="cls-5" width="32" height="4" rx="2" transform="translate(1226.522 850.858)"/>
        <rect id="사각형_45" data-name="사각형 45" class="cls-5" width="13" height="4" rx="2" transform="translate(1263.522 850.858)"/>
    </g>
</svg>
