<svg xmlns="http://www.w3.org/2000/svg" width="23.5" height="23.5">
    <path fill="#FFF" fill-rule="evenodd" stroke="#181818" d="M4.5.5h14c2.209 0 4 1.791 4 4v14c0 2.209-1.791 4-4 4h-14c-2.209 0-4-1.791-4-4v-14c0-2.209 1.791-4 4-4z"/>
    <path fill="#181818" fill-rule="evenodd" d="M9.743 15.495c-.3 0-.6-.113-.831-.338L6.223 12.62c-.472-.459-.483-1.214-.024-1.686.459-.471 1.214-.483 1.686-.024l1.858 1.731 4.729-4.818c.472-.459 1.228-.447 1.686.024.46.472.448 1.227-.023 1.686l-5.561 5.624c-.231.225-.531.338-.831.338z"/>
</svg>
