<svg xmlns="http://www.w3.org/2000/svg" width="23.5" height="23.5">
    <path fill="#F8F8F8" fill-rule="evenodd" stroke="#DDD" d="M4.5.5h14c2.209 0 4 1.79 4 4v14c0 2.209-1.791 4-4 4h-14c-2.21 0-4-1.791-4-4v-14c0-2.21 1.79-4 4-4z"/>
    <path fill="#AAA" fill-rule="evenodd" d="M9.743 15.494c-.3 0-.6-.112-.832-.337L6.223 12.62c-.472-.459-.483-1.214-.025-1.686.459-.471 1.215-.484 1.687-.025l1.858 1.732 4.729-4.819c.472-.459 1.228-.446 1.686.025.459.472.448 1.227-.024 1.686l-5.561 5.624c-.231.225-.531.337-.83.337z"/>
</svg>
