<svg xmlns="http://www.w3.org/2000/svg" width="20" height="20">
    <path fill="#001D26" fill-rule="evenodd" d="M4 0h12c2.209 0 4 1.79 4 4v12c0 2.209-1.791 4-4 4H4c-2.209 0-4-1.791-4-4V4c0-2.21 1.791-4 4-4z"/>
    <path fill="#00C6F7" fill-rule="evenodd" d="M13.341 9.011c-.572 0-.942.231-.942.655 0 .53.985.682 1.212.734.424.103 2.389.387 2.389 1.755C16 13.773 14.274 14 13.506 14c-1.424 0-2.436-.612-2.789-.9l.589-.934c.376.252 1.242.767 2.164.767.598 0 1.012-.237 1.012-.644 0-.501-.875-.663-1.353-.789-.4-.104-2.2-.343-2.2-1.622 0-1.233 1.135-1.923 2.424-1.923 1.352 0 2.074.519 2.411.8l-.635.9c-.314-.222-1.012-.644-1.788-.644zm-3.275.401c-.014.041-.023.083-.038.123-.088.236-.208.453-.356.652-.011.016-.016.037-.028.052v-.017c-.474.615-1.205 1.022-2.045 1.022H5.623v2.644H4V6h3.541c.919 0 1.642.459 2.103 1.073v-.019c.015.02.02.044.035.065.15.207.271.428.357.659.013.036.021.071.032.107.079.245.132.494.132.736v.001c0 .276-.055.539-.134.79zM7.435 7.344H5.623V9.9h1.883c.569 0 1.047-.502 1.047-1.278 0-.667-.429-1.278-1.118-1.278z"/>
</svg>
