<svg xmlns="http://www.w3.org/2000/svg" width="20" height="20">
    <path fill="#4CAF50" fill-rule="evenodd" d="M4 0h12c2.208 0 4 1.79 4 4v12c0 2.209-1.792 4-4 4H4c-2.21 0-4-1.791-4-4V4c0-2.21 1.79-4 4-4z"/>
    <path fill="#FFF" fill-rule="evenodd" d="M16.219 16.991H3.755c-.396-.022-.707-.346-.759-.764l1.719-2.588c.524-.788 1.387-.788 1.912 0l.97 1.461 3.668-5.519c.245-.368.564-.557.888-.581h.135c.324.024.643.213.888.581l3.823 6.531c0 .475-.347.855-.78.879zM5.999 7.995C4.895 7.995 4 7.098 4 5.991c0-1.106.895-2.003 1.999-2.003C7.104 3.988 8 4.885 8 5.991c0 1.107-.896 2.004-2.001 2.004z"/>
</svg>
