<svg xmlns="http://www.w3.org/2000/svg" width="20" height="20">
    <path fill="#B30B00" fill-rule="evenodd" d="M4 0h12c2.208 0 4 1.791 4 4v12c0 2.209-1.792 4-4 4H4c-2.209 0-4-1.791-4-4V4c0-2.209 1.791-4 4-4z"/>
    <path fill="#FFF" fill-rule="evenodd" d="M14 10.5c-.202 0-.743.059-1.451.178-.463-.364-.903-.739-1.196-1.032-.381-.381-.72-.75-1.015-1.101.46-1.422.661-2.155.661-2.545 0-1.66-.599-2-1.499-2C8.816 4 8 4.355 8 6.048c0 .746.408 1.651 1.219 2.704-.199.605-.432 1.303-.694 2.09-.125.377-.262.727-.407 1.05-.118.052-.232.105-.342.16-.398.199-.775.378-1.125.544C5.054 13.352 4 13.852 4 14.839 4 15.556 4.778 16 5.5 16c.929 0 2.333-1.242 3.358-3.334 1.065-.42 2.388-.731 3.433-.925.837.643 1.761 1.259 2.209 1.259 1.239 0 1.5-.717 1.5-1.318 0-1.182-1.351-1.182-2-1.182zM5.5 15c-.286 0-.479-.135-.5-.161 0-.355 1.057-.855 2.079-1.34l.198-.093C6.526 14.495 5.783 15 5.5 15zM9 6.048C9 5 9.325 5 9.5 5c.353 0 .5 0 .5 1 0 .211-.141.738-.398 1.561C9.209 6.957 9 6.439 9 6.048zm.383 5.374l.091-.264.501-1.507c.208.229.431.462.671.702.094.094.326.305.636.569-.616.134-1.272.301-1.899.5zm5.153.581c-.137-.03-.451-.215-.84-.48.141-.016.245-.023.304-.023.738 0 .948.072.999.182 0 .224 0 .318-.463.321z"/>
</svg>
