<svg xmlns="http://www.w3.org/2000/svg" width="16" height="16">
    <path fill="#555" fill-rule="evenodd" d="M12.5 7c-1.121 0-2.108-.537-2.748-1.357l-2.96 1.709C6.918 7.714 7 8.096 7 8.5c0 .087-.019.168-.026.253l2.777 1.603C10.392 9.536 11.379 9 12.5 9c1.933 0 3.5 1.567 3.5 3.5S14.433 16 12.5 16 9 14.433 9 12.5c0-.087.019-.168.025-.253l-2.777-1.604C5.607 11.463 4.621 12 3.5 12 1.567 12 0 10.433 0 8.5S1.567 5 3.5 5c.796 0 1.522.276 2.111.725l3.414-1.972C9.019 3.668 9 3.587 9 3.5 9 1.567 10.567 0 12.5 0S16 1.567 16 3.5 14.433 7 12.5 7zm0 7c.828 0 1.5-.672 1.5-1.5 0-.829-.672-1.5-1.5-1.5-.829 0-1.5.671-1.5 1.5 0 .828.671 1.5 1.5 1.5zm-9-7C2.672 7 2 7.671 2 8.5c0 .828.672 1.5 1.5 1.5S5 9.328 5 8.5C5 7.671 4.328 7 3.5 7zm9-5c-.829 0-1.5.671-1.5 1.5 0 .828.671 1.5 1.5 1.5.828 0 1.5-.672 1.5-1.5 0-.829-.672-1.5-1.5-1.5z"/>
</svg>
