<svg xmlns="http://www.w3.org/2000/svg" width="18" height="18">
    <path fill="#FFF" fill-rule="evenodd" d="M18 11.228V9.824c0-1.72-1.04-3.202-2.525-3.854.523-.631.837-1.44.837-2.321 0-2.012-1.64-3.649-3.656-3.649S9 1.637 9 3.649c0 .881.314 1.69.836 2.321-.832.365-1.524.992-1.972 1.776-.656-.625-1.544-1.009-2.52-1.009-2.017 0-3.657 1.637-3.657 3.649 0 .88.315 1.689.837 2.32C1.039 13.359 0 14.841 0 16.561v1.404h10.687v-1.404c0-1.72-1.039-3.202-2.524-3.855.35-.423.606-.927.737-1.478H18zm-5.344-9.544c1.086 0 1.969.881 1.969 1.965 0 1.083-.883 1.965-1.969 1.965s-1.969-.882-1.969-1.965c0-1.084.883-1.965 1.969-1.965zm-1.125 5.614h2.25c1.301 0 2.375.984 2.515 2.246H9.015c.14-1.262 1.215-2.246 2.516-2.246zM5.344 8.421c1.085 0 1.968.881 1.968 1.965 0 1.083-.883 1.965-1.968 1.965-1.086 0-1.969-.882-1.969-1.965 0-1.084.883-1.965 1.969-1.965zm3.64 7.859H1.703c.14-1.261 1.214-2.245 2.515-2.245h2.25c1.301 0 2.376.984 2.516 2.245z"/>
</svg>
