<svg xmlns="http://www.w3.org/2000/svg" width="18" height="18">
    <path fill="#FFF" fill-rule="evenodd" d="M15.771 11.614c-.889-.935-1.957-1.615-3.081-1.986 1.12-1.008 1.826-2.467 1.826-4.088C14.516 2.505 12.041.035 9 .035c-3.042 0-5.517 2.47-5.517 5.505 0 1.621.706 3.08 1.826 4.088-1.124.371-2.192 1.051-3.08 1.986C.791 13.126 0 15.085 0 17.13V18h18v-.87c0-2.045-.792-4.004-2.229-5.516zM9 1.774c2.08 0 3.774 1.689 3.774 3.766S11.08 9.307 9 9.307c-2.081 0-3.774-1.69-3.774-3.767S6.919 1.774 9 1.774zM1.803 16.261c.432-3.037 3.072-5.216 5.455-5.216h3.484c2.382 0 5.022 2.179 5.454 5.216H1.803z"/>
</svg>
