<svg xmlns="http://www.w3.org/2000/svg" width="18" height="18">
    <path fill="#FFF" fill-rule="evenodd" d="M16 18H2c-1.105 0-2-.896-2-2v-5c0-.232.047-.45.119-.657L2 0h14l1.88 10.343c.073.207.12.425.12.657v5c0 1.104-.896 2-2 2zM14 2H4L2.52 8.999h12.96L14 2zm2 10c0-.552-.448-1-1-1H3c-.552 0-1 .448-1 1v3c0 .552.448 1 1 1h12c.552 0 1-.448 1-1v-3zm-3.5 2.55c-.58 0-1.05-.47-1.05-1.05 0-.58.47-1.05 1.05-1.05.58 0 1.05.47 1.05 1.05 0 .58-.47 1.05-1.05 1.05zM4 13h6v1H4v-1zm1.476-9.273c.124-.051.257-.077.396-.077.329 0 .627.147.777.384.052.082.048.171.058.259.181.181.293.431.293.707 0 .041-.019.076-.023.115l.962.664.498-.975C8.179 4.623 8 4.339 8 4c0-.213.081-.4.195-.562.005-.011.014-.019.02-.03.038-.051.073-.101.12-.144.069-.067.15-.121.244-.165.016-.007.028-.017.043-.023C8.738 3.031 8.863 3 9 3h.002c.135.001.26.031.374.076.017.007.03.017.047.025.092.043.173.096.24.162.049.044.084.096.124.148l.017.026C9.918 3.6 10 3.786 10 4c0 .339-.18.624-.438.805l.498.974.963-.664C11.018 5.075 11 5.041 11 5c0-.276.112-.525.292-.706.01-.088.006-.178.058-.26.15-.237.448-.384.777-.384.139 0 .272.026.396.077.405.168.567.555.4.889.049.119.077.248.077.384 0 .552-.448 1-1 1-.014 0-.025-.007-.038-.008l-.188 1.859c-.008.084-.095.149-.199.149H6.424c-.104 0-.191-.065-.199-.149l-.187-1.859C6.025 5.993 6.013 6 6 6c-.553 0-1-.448-1-1 0-.136.028-.264.077-.382-.168-.335-.006-.723.399-.891z"/>
</svg>
