<svg xmlns="http://www.w3.org/2000/svg" width="18" height="18">
    <path fill="#555" fill-rule="evenodd" d="M8.962 11c-.076.527-.268 1.016-.551 1.44C9.937 13.16 11 14.701 11 16.5V18H0v-1.5c0-1.799 1.063-3.34 2.589-4.06C2.218 11.885 2 11.218 2 10.5 2 8.567 3.567 7 5.5 7c.718 0 1.385.218 1.94.589.445-.944 1.205-1.703 2.148-2.149C9.217 4.885 9 4.218 9 3.5 9 1.567 10.567 0 12.5 0S16 1.567 16 3.5c0 .718-.218 1.385-.589 1.94C16.937 6.16 18 7.701 18 9.5V11H8.962zM5.5 9C4.671 9 4 9.671 4 10.5c0 .828.671 1.5 1.5 1.5.828 0 1.5-.672 1.5-1.5C7 9.671 6.328 9 5.5 9zm1.077 5.003H4.423c-1.246 0-2.274.875-2.408 1.996h6.97c-.135-1.121-1.163-1.996-2.408-1.996zM12.5 2c-.828 0-1.5.671-1.5 1.5 0 .828.672 1.5 1.5 1.5S14 4.328 14 3.5c0-.829-.672-1.5-1.5-1.5zm1.076 5.003h-2.154c-1.244 0-2.273.875-2.407 1.996h6.97c-.134-1.121-1.164-1.996-2.409-1.996z"/>
</svg>
