<svg xmlns="http://www.w3.org/2000/svg" width="18" height="18">
    <path fill="#FFF" fill-rule="evenodd" d="M16 18H1.999c-1.104 0-2-.896-2-2v-5c0-.232.047-.45.12-.657L1.999 0H16l1.88 10.343c.072.207.119.425.119.657v5c0 1.104-.895 2-1.999 2zM14 2H3.999L2.52 8.999h12.96L14 2zm2 10c0-.552-.448-1-1.001-1H3c-.552 0-1.001.448-1.001 1v3c0 .552.449 1 1.001 1h11.999c.553 0 1.001-.448 1.001-1v-3zm-3.501 2.55c-.579 0-1.049-.47-1.049-1.05 0-.58.47-1.05 1.049-1.05.581 0 1.05.47 1.05 1.05 0 .58-.469 1.05-1.05 1.05zM3.999 13H10v1H3.999v-1z"/>
</svg>
