<svg xmlns="http://www.w3.org/2000/svg" width="22" height="19">
    <path fill="#B30B00" fill-rule="evenodd" d="M20.556 18.968H1.443c-1.108 0-1.802-1.114-1.248-2.002L9.752 1.633c.554-.889 1.941-.889 2.495 0l9.557 15.333c.554.888-.14 2.002-1.248 2.002zm-9.54-13.112c-.771 0-1.384.59-1.367 1.299l.219 4.827c.017.569.524 1.027 1.142 1.027.62 0 1.127-.453 1.143-1.027l.226-4.827c.022-.709-.597-1.299-1.363-1.299zm-.017 8.087c-.782 0-1.418.589-1.418 1.314 0 .724.636 1.314 1.418 1.314.783 0 1.419-.59 1.419-1.314 0-.725-.636-1.314-1.419-1.314z"/>
</svg>
