<svg xmlns="http://www.w3.org/2000/svg" width="20" height="21">
    <path fill="#117E42" fill-rule="evenodd" d="M9.998 20.967c-5.513 0-10-4.485-10-9.998 0-5.514 4.487-9.999 10-9.999 5.515 0 10.001 4.485 10.001 9.999 0 5.513-4.486 9.998-10.001 9.998zm4.557-13.064c-.173-.173-.403-.268-.647-.268-.245 0-.476.095-.648.268l-4.257 4.256-2.26-2.26c-.173-.173-.403-.268-.648-.268s-.475.095-.648.268c-.173.173-.269.403-.269.648s.096.475.269.648l2.908 2.908c.173.173.403.268.648.268s.475-.095.648-.268l4.905-4.904c.357-.357.357-.938-.001-1.296z"/>
</svg>
