<svg width="21" height="21" viewBox="0 0 21 21" fill="none" xmlns="http://www.w3.org/2000/svg">
<mask id="mask0" mask-type="alpha" maskUnits="userSpaceOnUse" x="0" y="0" width="21" height="21">
<path fill-rule="evenodd" clip-rule="evenodd" d="M7.08587 1.06304C4.5227 1.91609 2.33987 3.78226 1.12303 6.14334C0.69895 6.95723 0.393283 7.82163 0.206617 8.71896C-0.257133 10.9421 0.0654501 13.3146 1.1172 15.3396C1.80203 16.6609 2.7867 17.8381 3.97378 18.7575C5.1002 19.627 6.40687 20.2769 7.79812 20.6345C9.55162 21.0914 11.4183 21.0806 13.1834 20.6895C14.7783 20.332 16.2891 19.589 17.4937 18.5101C18.7665 17.371 19.6771 15.8737 20.1584 14.2613C20.684 12.5052 20.7522 10.6288 20.4238 8.82339H10.5252V12.8191H16.2605C16.04 14.0961 15.2595 15.2624 14.1559 15.9838C13.4605 16.4407 12.6625 16.7324 11.8371 16.8755C11.0111 17.0128 10.1513 17.0299 9.32528 16.8698C8.48295 16.7046 7.68553 16.3635 6.9832 15.8851C5.86378 15.1194 5.0092 14.0024 4.57345 12.7419C4.12662 11.4597 4.12078 10.034 4.57345 8.75755C4.89078 7.85512 5.41112 7.02363 6.1012 6.34085C6.94995 5.49347 8.05303 4.88844 9.24595 4.64042C10.2645 4.43155 11.3395 4.46958 12.3347 4.76131C13.1834 5.00934 13.9639 5.46566 14.6033 6.06047L16.5376 4.17785C16.8771 3.84242 17.2335 3.51777 17.5614 3.17099C16.5831 2.29069 15.4287 1.58066 14.1734 1.12888C13.0125 0.711148 11.777 0.503418 10.5415 0.503418C9.36845 0.503418 8.19537 0.690148 7.08587 1.06304Z" fill="white"/>
</mask>
<g mask="url(#mask0)">
<path fill-rule="evenodd" clip-rule="evenodd" d="M-0.282799 21.2554H20.9062V0.228149H-0.282799V21.2554Z" fill="white"/>
</g>
<mask id="mask1" mask-type="alpha" maskUnits="userSpaceOnUse" x="0" y="0" width="18" height="10">
<path fill-rule="evenodd" clip-rule="evenodd" d="M6.96865 1.1174C4.36531 2.01408 2.14826 3.97567 0.912354 6.46285C2.08486 7.37683 3.25145 8.28484 4.41685 9.19942C4.73916 8.25084 5.26765 7.37146 5.96855 6.65973C6.83593 5.76842 7.95631 5.13246 9.16259 4.87175C10.1971 4.64623 11.289 4.69217 12.2998 4.99942C13.1618 5.2655 13.9545 5.73979 14.6039 6.36442L16.5685 4.38612C16.9134 4.03294 17.2754 3.69229 17.6083 3.32717C16.6088 2.39589 15.4422 1.65552 14.1672 1.18064C12.9894 0.745724 11.7363 0.528564 10.4826 0.528564C9.28879 0.528564 8.09495 0.724843 6.96865 1.1174Z" fill="white"/>
</mask>
<g mask="url(#mask1)">
<path fill-rule="evenodd" clip-rule="evenodd" d="M0.625595 9.48876H17.8957V0.23922H0.625595V9.48876Z" fill="#E84336"/>
</g>
<mask id="mask2" mask-type="alpha" maskUnits="userSpaceOnUse" x="0" y="6" width="6" height="10">
<path fill-rule="evenodd" clip-rule="evenodd" d="M0.244108 8.84926C-0.261801 11.1342 0.0901084 13.5725 1.24956 15.6486C2.50256 14.7608 3.75556 13.8671 5.00793 12.9728C4.51411 11.6603 4.51411 10.1956 5.00793 8.87726C3.74984 7.98359 2.49684 7.09635 1.24384 6.2021C0.781199 7.03918 0.447745 7.93285 0.244108 8.84926Z" fill="white"/>
</mask>
<g mask="url(#mask2)">
<path fill-rule="evenodd" clip-rule="evenodd" d="M-0.289162 15.9315H5.3172V5.91918H-0.289162V15.9315Z" fill="#FABB05"/>
</g>
<mask id="mask3" mask-type="alpha" maskUnits="userSpaceOnUse" x="10" y="8" width="11" height="11">
<path fill-rule="evenodd" clip-rule="evenodd" d="M10.5252 8.90356C10.5252 10.2721 10.5252 11.6417 10.5194 13.0108H16.2547C16.0342 14.3227 15.2537 15.5221 14.1506 16.2629L17.4937 18.8593C18.7665 17.6886 19.6771 16.1503 20.1584 14.4931C20.6787 12.6824 20.7522 10.7533 20.4238 8.90356H10.5252Z" fill="white"/>
</mask>
<g mask="url(#mask3)">
<path fill-rule="evenodd" clip-rule="evenodd" d="M10.2365 19.1422H20.905V8.62065H10.2365V19.1422Z" fill="#4384F3"/>
</g>
<mask id="mask4" mask-type="alpha" maskUnits="userSpaceOnUse" x="0" y="12" width="18" height="9">
<path fill-rule="evenodd" clip-rule="evenodd" d="M0.912354 15.283C1.60792 16.6158 2.60743 17.8042 3.80779 18.7257C4.95186 19.6094 6.27901 20.2589 7.69206 20.6197C9.47305 21.0813 11.369 21.0699 13.1618 20.6752C14.7816 20.3144 16.3161 19.5705 17.5396 18.4765L14.1441 15.9273C13.4379 16.3878 12.6274 16.6822 11.7884 16.8265C10.9442 16.9657 10.0768 16.988 9.23724 16.8214C8.38763 16.6547 7.57179 16.3099 6.85845 15.8271C5.72149 15.0551 4.85943 13.9274 4.41152 12.6559C3.24553 13.5333 2.07894 14.4108 0.912354 15.283Z" fill="white"/>
</mask>
<g mask="url(#mask4)">
<path fill-rule="evenodd" clip-rule="evenodd" d="M0.625595 21.2463H17.827V12.3782H0.625595V21.2463Z" fill="#35A753"/>
</g>
</svg>
