<svg width="23" height="20" viewBox="0 0 23 20" fill="none" xmlns="http://www.w3.org/2000/svg">
<mask id="mask0" mask-type="alpha" maskUnits="userSpaceOnUse" x="0" y="0" width="23" height="20">
<path fill-rule="evenodd" clip-rule="evenodd" d="M0 0.0185547H22.0517V19.9381H0V0.0185547Z" fill="white"/>
</mask>
<g mask="url(#mask0)">
<path fill-rule="evenodd" clip-rule="evenodd" d="M11.0258 0.0185375C4.93621 0.0185375 0 3.85547 0 8.58922C0 11.6701 2.09155 14.3702 5.23061 15.8809C5.00002 16.7277 4.39563 18.9481 4.27426 19.4231C4.12506 20.0127 4.49428 20.0048 4.73601 19.846C4.92553 19.7219 7.7574 17.8292 8.97925 17.0121C9.64224 17.1087 10.3263 17.1601 11.0258 17.1601C17.1152 17.1601 22.0517 13.3222 22.0517 8.58922C22.0517 3.85547 17.1152 0.0185375 11.0258 0.0185375Z" fill="#391B1B"/>
</g>
<path fill-rule="evenodd" clip-rule="evenodd" d="M6.38456 6.06813H3.15074C2.84683 6.06813 2.60061 6.30059 2.60061 6.58718C2.60061 6.87398 2.84683 7.10644 3.15074 7.10644H4.20196V10.7629C4.20196 10.8958 4.25937 11.0265 4.36025 11.1213C4.4589 11.2152 4.59702 11.2694 4.7384 11.2694H4.8559C4.99671 11.2694 5.13432 11.2152 5.23331 11.1215C5.33391 11.0267 5.39154 10.8968 5.39154 10.7629V7.10644H6.38456C6.68875 7.10644 6.93497 6.87398 6.93497 6.58718C6.93497 6.30059 6.68875 6.06813 6.38456 6.06813Z" fill="#FAE300"/>
<path fill-rule="evenodd" clip-rule="evenodd" d="M14.2631 10.6893H12.8356V6.67405C12.8356 6.33923 12.5821 6.06813 12.2692 6.06813C11.9563 6.06813 11.7028 6.33923 11.7028 6.67405V11.0021C11.7028 11.0356 11.7067 11.0672 11.7116 11.099C11.7059 11.1302 11.7028 11.163 11.7028 11.1955C11.7028 11.4758 11.9142 11.7028 12.1766 11.7028H14.2631C14.5255 11.7028 14.7368 11.4758 14.7368 11.1955C14.7368 10.9164 14.5255 10.6893 14.2631 10.6893Z" fill="#FAE300"/>
<path fill-rule="evenodd" clip-rule="evenodd" d="M18.9689 10.8411L17.3664 8.62256L18.8142 7.09565C19.0103 6.88937 19.0103 6.55379 18.8144 6.34717C18.6185 6.14061 18.3005 6.14061 18.1038 6.34717L16.3114 8.23663V6.66998C16.3114 6.33741 16.0561 6.06813 15.741 6.06813C15.4257 6.06813 15.1703 6.33741 15.1703 6.66998V11.1009C15.1703 11.4338 15.4257 11.7025 15.741 11.7025C16.0561 11.7025 16.3114 11.4338 16.3114 11.1009V9.73381L16.6372 9.39073L18.153 11.4875C18.3217 11.7251 18.6424 11.7738 18.8674 11.5946C19.0927 11.4162 19.1381 11.0787 18.9689 10.8411Z" fill="#FAE300"/>
<path fill-rule="evenodd" clip-rule="evenodd" d="M8.14256 9.54631L8.87388 7.41455C8.88208 7.41455 8.8892 7.41686 8.89745 7.41686L9.62821 9.54631H8.14256ZM11.2394 10.9851L9.64913 6.54108C9.64913 6.54108 9.64539 6.5375 9.64387 6.53611C9.54189 6.26545 9.24873 6.06813 8.8987 6.06813C8.51051 6.06813 8.18943 6.31038 8.1256 6.62758C8.11475 6.65114 8.1039 6.67487 8.09519 6.70057L6.53148 10.9851C6.43493 11.2663 6.57964 11.5737 6.85375 11.6722C7.12848 11.7709 7.43007 11.6229 7.52662 11.3424L7.79717 10.5533H9.97372L10.2442 11.3424C10.3408 11.6229 10.6419 11.7709 10.9167 11.6722C11.1911 11.5737 11.336 11.2663 11.2394 10.9851Z" fill="#FAE300"/>
</svg>
