<svg xmlns="http://www.w3.org/2000/svg" width="107" height="130">
    <defs>
        <linearGradient id="yh54a2es1a" x1="0%" x2="0%" y1="100%" y2="0%">
            <stop offset="0%" stop-color="#CAD1D8" stop-opacity=".5"/>
            <stop offset="100%" stop-color="#CAD1D8" stop-opacity="0"/>
        </linearGradient>
        <filter id="c73dp0uhib" width="34" height="35" x="59" y="1" filterUnits="userSpaceOnUse">
            <feOffset dy="1" in="SourceAlpha"/>
            <feGaussianBlur result="blurOut" stdDeviation="1"/>
            <feFlood flood-color="#1F394E" result="floodOut"/>
            <feComposite in="floodOut" in2="blurOut" operator="atop"/>
            <feComponentTransfer>
                <feFuncA slope=".15" type="linear"/>
            </feComponentTransfer>
            <feMerge>
                <feMergeNode/>
                <feMergeNode in="SourceGraphic"/>
            </feMerge>
        </filter>
    </defs>
    <path fill="#F7F9FA" fill-rule="evenodd" d="M8.66 1.781c-4.107 0-7.467 3.387-7.467 7.527v105.383c0 4.14 3.36 7.527 7.467 7.527h74.673c4.106 0 7.467-3.387 7.467-7.527V31.89L60.931 1.781H8.66z"/>
    <path fill="url(#yh54a2es1a)" d="M8.66 1.781c-4.107 0-7.467 3.387-7.467 7.527v105.383c0 4.14 3.36 7.527 7.467 7.527h74.673c4.106 0 7.467-3.387 7.467-7.527V31.89L60.931 1.781H8.66z"/>
    <path fill="#1F394E" fill-rule="evenodd" d="M90.8 54.981L68.387 32.612H90.8v22.369z" opacity=".051"/>
    <g filter="url(#c73dp0uhib)">
        <path fill="#E0E4E7" fill-rule="evenodd" d="M67.709 32.613H90.8L60.012 1.78v23.124c0 4.24 3.464 7.709 7.697 7.709z"/>
    </g>
    <path fill="#576D7E" fill-rule="evenodd" d="M69.347 82.571h-20.83c.495-3.449.907-3.87 2.142-5.888 1.151-1.934 3.457-4.037 6.833-6.56 1.481-1.01 2.715-2.188 3.87-3.534.492-.672.822-1.43.822-2.27 0-.757-.33-1.514-.822-2.019-.506-.515-1.136-.773-1.838-.773-.1 0-.202.005-.305.016-.822 0-1.563.252-2.139.841-.577.589-.905 1.093-1.153 3.028h-6.915c.164-2.018.494-3.701 1.481-5.215.741-1.178 1.812-2.019 3.047-2.608 1.554-.605 3.24-.937 4.942-.937.191 0 .382.004.574.012.244-.01.486-.015.727-.015 1.714 0 3.365.266 4.952.856 1.319.505 2.389 1.43 3.212 2.608.74 1.178 1.235 2.523 1.152 3.953 0 1.598-.493 3.112-1.316 4.458-.905 1.43-2.47 2.944-4.858 4.71-1.399 1.009-2.306 1.682-2.799 2.103-.495.42-.988.926-1.646 1.515h10.867v5.719zm-27.086-2.775c-.823.841-1.812 1.597-2.964 2.018-1.646.589-3.376.841-5.104.841-1.235 0-2.553-.084-3.788-.252-1.152-.084-2.305-.505-3.375-1.01-.988-.504-1.812-1.177-2.47-2.018-.74-.841-1.234-1.767-1.564-2.777-.411-1.345-.659-2.69-.659-4.12V58.01h7.164v14.72c-.083 1.093.328 2.271 1.068 3.112 1.73 1.514 4.2 1.514 5.929 0 .741-.841 1.153-1.934 1.069-3.112V58.01H44.977v14.383c0 1.346-.246 2.776-.658 4.038-.412 1.262-1.153 2.439-2.058 3.365zM101.84 129.999H76.158c-2.849 0-5.159-2.31-5.159-5.159V99.158c0-2.85 2.31-5.16 5.159-5.16h25.682c2.85 0 5.16 2.31 5.16 5.16v25.682c0 2.849-2.31 5.159-5.16 5.159z"/>
    <path fill="#FFF" fill-rule="evenodd" d="M98.025 114.002H93.01v7.562c0 .542-.433.981-.968.981h-6.096c-.534 0-.968-.439-.968-.981v-7.562h-5.015c-.759 0-1.173-.972-.686-1.61l9.031-11.838c.358-.468 1.015-.468 1.372 0l9.031 11.838c.487.638.073 1.61-.686 1.61z"/>
</svg>
