<svg xmlns="http://www.w3.org/2000/svg" width="115" height="27">
    <path fill="#282828" fill-rule="evenodd" d="M114.315 18.531h-6.901c.24 1.84 1.44 2.801 3.101 2.801.92 0 1.72-.28 2.52-.781l1 1.801c-1.1.76-2.52 1.24-3.9 1.24-3.141 0-5.581-2.18-5.581-5.881 0-3.621 2.56-5.881 5.22-5.881 3.081 0 4.681 2.26 4.681 5.341 0 .56-.06 1.1-.14 1.36zm-4.5-4.421c-1.181 0-2.221.84-2.441 2.461h4.561c0-1.501-.68-2.461-2.12-2.461zm-13.561 9.202L92.433 12.11h2.961l1.64 5.581c.3 1.1.601 2.26.9 3.401h.101c.3-1.141.6-2.301.9-3.401l1.64-5.581h2.821l-3.741 11.202h-3.401zm-7.12-13.003c-1.02 0-1.72-.64-1.72-1.62 0-.96.7-1.601 1.72-1.601 1 0 1.701.641 1.701 1.601 0 .98-.701 1.62-1.701 1.62zm-4.698 4.121c-.881 0-1.941.58-2.561 2.201v6.681h-2.941V12.11h2.401l.22 1.98h.06c.82-1.46 2.02-2.26 3.18-2.26.621 0 .981.099 1.321.24l-.5 2.54c-.4-.12-.72-.18-1.18-.18zm-15.321 8.882h-4.22V8.489h4.06c4.521 0 7.322 2.36 7.322 7.361 0 4.982-2.801 7.462-7.162 7.462zm-.34-12.443h-.92v10.062h.92c2.761 0 4.481-1.48 4.481-5.081 0-3.62-1.72-4.981-4.481-4.981zM26.517 26.571c.495-3.449.907-3.87 2.142-5.888 1.151-1.934 3.457-4.037 6.833-6.56 1.481-1.01 2.715-2.188 3.87-3.534.492-.672.822-1.43.822-2.27 0-.757-.33-1.514-.822-2.019-.506-.515-1.136-.773-1.838-.773-.1 0-.202.005-.305.016-.822 0-1.563.252-2.139.841-.577.589-.905 1.093-1.153 3.028h-6.915c.164-2.018.494-3.701 1.481-5.215.741-1.178 1.812-2.019 3.047-2.608 1.554-.605 3.24-.937 4.942-.937.191 0 .382.004.574.012.244-.01.486-.015.727-.015 1.714 0 3.365.266 4.952.856 1.319.505 2.389 1.43 3.212 2.608.74 1.178 1.235 2.523 1.152 3.953 0 1.598-.493 3.112-1.316 4.458-.905 1.43-2.47 2.944-4.858 4.71-1.399 1.009-2.306 1.682-2.799 2.103-.495.42-.988.926-1.646 1.515h10.867v5.719h-20.83zm-6.256-2.775c-.823.841-1.812 1.597-2.964 2.018-1.646.589-3.376.841-5.104.841-1.235 0-2.553-.084-3.788-.252-1.152-.084-2.305-.505-3.375-1.01-.988-.504-1.812-1.177-2.47-2.018-.74-.841-1.234-1.767-1.564-2.777-.411-1.345-.659-2.69-.659-4.12V2.01h7.164v14.72c-.083 1.093.328 2.271 1.068 3.112 1.73 1.514 4.2 1.514 5.929 0 .741-.841 1.153-1.934 1.069-3.112V2.01H22.977v14.383c0 1.346-.246 2.776-.658 4.038-.412 1.262-1.153 2.439-2.058 3.365zm70.334-.484h-2.941V12.11h2.941v11.202z"/>
</svg>
