<svg width="57" height="50" viewBox="0 0 57 50" fill="none" xmlns="http://www.w3.org/2000/svg">
<path d="M26.5117 45.5752V41.1504H41.9945C43.1809 41.1504 44.1861 40.1527 44.1861 38.9226V24.5575H39.7675V32.3009H4.41869V12.3894H28.5V7.9646H2.19172C1.00532 7.9646 9.00201e-05 8.96239 9.00201e-05 10.1925V38.9226C-0.00253145 39.2131 0.0521256 39.5012 0.160929 39.7706C0.269732 40.0399 0.430541 40.2851 0.634141 40.492C0.83774 40.699 1.08013 40.8637 1.34741 40.9767C1.61469 41.0897 1.90161 41.1487 2.19172 41.1504H17.6745V45.5752L13.2471 47.7965L13.2559 50H30.9303V47.7876L26.5117 45.5752Z" fill="black"/>
<path d="M36.3939 21.2389L30.4884 25.885V1.32743C30.4884 0.975376 30.6281 0.637738 30.8767 0.388796C31.1253 0.139854 31.4624 0 31.814 0H55.6744C56.026 0 56.3632 0.139854 56.6118 0.388796C56.8604 0.637738 57 0.975376 57 1.32743V19.9115C57 20.2636 56.8604 20.6012 56.6118 20.8501C56.3632 21.0991 56.026 21.2389 55.6744 21.2389H36.3939ZM33.1396 20.4226L35.4766 18.5841H54.3489V2.65487H33.1396V20.4226ZM42.4186 13.2743H45.0698V15.9292H42.4186V13.2743ZM42.4186 5.30973H45.0698V11.9469H42.4186V5.30973Z" fill="#153A1D"/>
</svg>
