<svg width="39" height="50" viewBox="0 0 39 50" fill="none" xmlns="http://www.w3.org/2000/svg">
<path d="M24.9106 25C26.6676 24.9997 28.3935 25.4658 29.9132 26.3508C31.4329 27.2358 32.6923 28.5084 33.5639 30.0395C34.4355 31.5706 34.8881 33.3058 34.876 35.0691C34.8639 36.8324 34.3873 38.5611 33.4948 40.08L39 45.605L35.4801 49.1425L29.9699 43.6175C28.6499 44.3974 27.1685 44.8614 25.6408 44.9734C24.1131 45.0854 22.5802 44.8425 21.1612 44.2634C19.7423 43.6843 18.4755 42.7847 17.4592 41.6344C16.443 40.4842 15.7046 39.1143 15.3016 37.6312C14.8986 36.1481 14.8417 34.5917 15.1353 33.0829C15.429 31.5741 16.0653 30.1536 16.9948 28.9317C17.9244 27.7098 19.1221 26.7195 20.4949 26.0376C21.8678 25.3557 23.3788 25.0006 24.9106 25ZM24.9106 30C23.5892 30 22.322 30.5268 21.3877 31.4645C20.4534 32.4021 19.9285 33.6739 19.9285 35C19.9285 36.3261 20.4534 37.5979 21.3877 38.5355C22.322 39.4732 23.5892 40 24.9106 40C26.2319 40 27.4991 39.4732 28.4335 38.5355C29.3678 37.5979 29.8927 36.3261 29.8927 35C29.8927 33.6739 29.3678 32.4021 28.4335 31.4645C27.4991 30.5268 26.2319 30 24.9106 30Z" fill="#153A1D"/>
<path d="M34.1452 0.732233C33.678 0.263392 33.0444 0 32.3838 0H2.49106C1.83039 0 1.19678 0.263392 0.729614 0.732233C0.26245 1.20107 0 1.83696 0 2.5V47.5C0 48.163 0.26245 48.7989 0.729614 49.2678C1.19678 49.7366 1.83039 50 2.49106 50H14.9463V45H4.98212V5H29.8927V22.5H34.8748V2.5C34.8748 1.83696 34.6124 1.20107 34.1452 0.732233Z" fill="black"/>
</svg>
