<svg width="29" height="39" viewBox="0 0 29 39" fill="none" xmlns="http://www.w3.org/2000/svg">
<g clip-path="url(#clip0)">
<path d="M27.1087 39.0002H1.8913C1.3897 39.0002 0.908647 38.8014 0.553958 38.4475C0.19927 38.0936 0 37.6136 0 37.1131V5.66151C0 5.16102 0.19927 4.68104 0.553958 4.32714C0.908647 3.97324 1.3897 3.77441 1.8913 3.77441H7.56522V5.03248H1.8913C1.7241 5.03248 1.56376 5.09876 1.44553 5.21673C1.3273 5.33469 1.26087 5.49468 1.26087 5.66151V37.1131C1.26087 37.28 1.3273 37.4399 1.44553 37.5579C1.56376 37.6759 1.7241 37.7422 1.8913 37.7422H27.1087C27.2759 37.7422 27.4362 37.6759 27.5545 37.5579C27.6727 37.4399 27.7391 37.28 27.7391 37.1131V16.9841H29V37.1131C29 37.6136 28.8007 38.0936 28.446 38.4475C28.0914 38.8014 27.6103 39.0002 27.1087 39.0002Z" fill="#333333"/>
<path d="M29 20.7583H27.7391V5.66151C27.7391 5.49468 27.6727 5.33469 27.5544 5.21673C27.4362 5.09876 27.2759 5.03248 27.1087 5.03248H21.4348V3.77441H27.1087C27.6103 3.77441 28.0913 3.97324 28.446 4.32714C28.8007 4.68104 29 5.16102 29 5.66151V20.7583Z" fill="#333333"/>
<path d="M25.8479 35.8549H3.15222V6.91943H25.8479V20.7581H24.587V8.1775H4.41309V34.5969H24.587V16.9839H25.8479V35.8549Z" fill="#333333"/>
<path d="M20.1739 8.17742H8.82606C8.32445 8.17742 7.8434 7.97861 7.48871 7.62471C7.13402 7.27081 6.93475 6.79081 6.93475 6.29032V4.40323C6.93475 3.90274 7.13402 3.42275 7.48871 3.06885C7.8434 2.71496 8.32445 2.51613 8.82606 2.51613H10.7174V1.8871C10.7174 1.38661 10.9166 0.906625 11.2713 0.552726C11.626 0.198827 12.1071 0 12.6087 0H16.3913C16.8929 0 17.3739 0.198827 17.7286 0.552726C18.0833 0.906625 18.2826 1.38661 18.2826 1.8871V2.51613H20.1739C20.6755 2.51613 21.1565 2.71496 21.5112 3.06885C21.8659 3.42275 22.0652 3.90274 22.0652 4.40323V6.29032C22.0652 6.79081 21.8659 7.27081 21.5112 7.62471C21.1565 7.97861 20.6755 8.17742 20.1739 8.17742ZM8.82606 3.77419C8.65886 3.77419 8.49851 3.84048 8.38028 3.95844C8.26205 4.07641 8.19562 4.2364 8.19562 4.40323V6.29032C8.19562 6.45715 8.26205 6.61714 8.38028 6.73511C8.49851 6.85307 8.65886 6.91935 8.82606 6.91935H20.1739C20.3411 6.91935 20.5014 6.85307 20.6197 6.73511C20.7379 6.61714 20.8043 6.45715 20.8043 6.29032V4.40323C20.8043 4.2364 20.7379 4.07641 20.6197 3.95844C20.5014 3.84048 20.3411 3.77419 20.1739 3.77419H17.0217V1.8871C17.0217 1.72027 16.9553 1.56028 16.837 1.44231C16.7188 1.32435 16.5585 1.25806 16.3913 1.25806H12.6087C12.4415 1.25806 12.2811 1.32435 12.1629 1.44231C12.0447 1.56028 11.9782 1.72027 11.9782 1.8871V3.77419H8.82606Z" fill="#333333"/>
</g>
<defs>
<clipPath id="clip0">
<rect width="29" height="39" fill="white"/>
</clipPath>
</defs>
</svg>
