<svg width="60" height="52" viewBox="0 0 60 52" fill="none" xmlns="http://www.w3.org/2000/svg">
<path d="M40.2979 52L38.8558 47.4102C38.5178 46.3287 37.8426 45.3836 36.929 44.7131C36.0154 44.0426 34.9113 43.6819 33.778 43.6836H26.212C25.0787 43.6819 23.9745 44.0426 23.0609 44.7131C22.1473 45.3836 21.4721 46.3287 21.1341 47.4102L19.692 52L17.2648 51.2384L18.717 46.6487C19.2141 45.0509 20.2101 43.6544 21.5589 42.6639C22.9077 41.6735 24.5384 41.1411 26.212 41.145H33.778C35.4515 41.1411 37.0822 41.6735 38.4311 42.6639C39.7799 43.6544 40.7758 45.0509 41.2729 46.6487L42.7252 51.2384L40.2979 52Z" fill="black"/>
<path d="M29.9898 40.3021C28.1968 40.2994 26.4779 39.586 25.2101 38.3184C23.9422 37.0507 23.2288 35.3321 23.2261 33.5393V31.7928C23.3209 30.0633 24.0748 28.4358 25.3329 27.245C26.5909 26.0542 28.2574 25.3906 29.9898 25.3906C31.7221 25.3906 33.3887 26.0542 34.6467 27.245C35.9047 28.4358 36.6587 30.0633 36.7535 31.7928V33.4987C36.7575 34.3898 36.5856 35.273 36.2476 36.0976C35.9096 36.9222 35.4122 37.672 34.7839 38.304C34.1555 38.936 33.4086 39.4378 32.586 39.7807C31.7633 40.1236 30.8811 40.3007 29.9898 40.3021ZM29.9898 27.6092C28.8701 27.6119 27.7971 28.0578 27.0054 28.8494C26.2137 29.641 25.7677 30.7139 25.765 31.8334V33.5393C25.8182 34.6252 26.2871 35.6489 27.0745 36.3986C27.862 37.1482 28.9076 37.5664 29.9949 37.5664C31.0822 37.5664 32.1278 37.1482 32.9152 36.3986C33.7026 35.6489 34.1715 34.6252 34.2247 33.5393V31.7928C34.2114 30.6786 33.7593 29.6146 32.9665 28.8314C32.1738 28.0483 31.1042 27.6092 29.9898 27.6092Z" fill="black"/>
<path d="M2.96553 51.9999L0.548462 51.2384L1.78746 47.3087C2.22414 45.9066 3.09896 44.6816 4.28347 43.8134C5.46797 42.9453 6.8997 42.4798 8.36835 42.4854H14.8376C16.0298 42.4842 17.202 42.7921 18.2397 43.379L16.9906 45.5926C16.3345 45.2193 15.5924 45.0234 14.8376 45.024H8.36835C7.4403 45.0221 6.53592 45.3166 5.78696 45.8646C5.03799 46.4125 4.48359 47.1853 4.20453 48.0702L2.96553 51.9999Z" fill="black"/>
<path d="M11.6079 42.1298C10.0242 42.1298 8.50529 41.5008 7.3854 40.381C6.26551 39.2613 5.63635 37.7426 5.63635 36.1591V34.707C5.63635 33.1235 6.26551 31.6049 7.3854 30.4851C8.50529 29.3654 10.0242 28.7363 11.6079 28.7363C13.1917 28.7363 14.7106 29.3654 15.8305 30.4851C16.9504 31.6049 17.5795 33.1235 17.5795 34.707V36.1591C17.5768 37.7418 16.9468 39.2589 15.8275 40.3781C14.7082 41.4972 13.1909 42.1271 11.6079 42.1298V42.1298ZM11.6079 31.2749C10.6975 31.2749 9.82443 31.6365 9.18069 32.2802C8.53695 32.9238 8.17528 33.7968 8.17528 34.707V36.1591C8.17528 37.0694 8.53695 37.9424 9.18069 38.586C9.82443 39.2297 10.6975 39.5912 11.6079 39.5912C12.5183 39.5912 13.3914 39.2297 14.0352 38.586C14.6789 37.9424 15.0406 37.0694 15.0406 36.1591V34.707C15.0406 33.7968 14.6789 32.9238 14.0352 32.2802C13.3914 31.6365 12.5183 31.2749 11.6079 31.2749Z" fill="black"/>
<path d="M57.0649 52.0001L55.7853 48.04C55.5057 47.1533 54.9498 46.3794 54.1988 45.8313C53.4478 45.2832 52.5411 44.9897 51.6113 44.9937H45.1523C44.3972 44.9917 43.6548 45.1878 42.9993 45.5623L41.7501 43.3487C42.7878 42.7618 43.96 42.4539 45.1523 42.4551H51.6113C53.0813 42.449 54.5146 42.914 55.7008 43.7821C56.887 44.6502 57.7638 45.8756 58.2024 47.2784L59.4414 51.2081L57.0649 52.0001Z" fill="black"/>
<path d="M48.3818 42.1298C46.7989 42.1271 45.2816 41.4972 44.1623 40.3781C43.043 39.2589 42.413 37.7418 42.4103 36.1591V34.707C42.4103 33.1235 43.0394 31.6049 44.1593 30.4851C45.2792 29.3654 46.7981 28.7363 48.3818 28.7363C49.9656 28.7363 51.4845 29.3654 52.6044 30.4851C53.7243 31.6049 54.3534 33.1235 54.3534 34.707V36.1591C54.3507 37.7418 53.7207 39.2589 52.6014 40.3781C51.4821 41.4972 49.9648 42.1271 48.3818 42.1298ZM48.3818 31.2749C47.4715 31.2749 46.5983 31.6365 45.9546 32.2802C45.3108 32.9238 44.9492 33.7968 44.9492 34.707V36.1591C44.9492 37.0694 45.3108 37.9424 45.9546 38.586C46.5983 39.2297 47.4715 39.5912 48.3818 39.5912C49.2922 39.5912 50.1653 39.2297 50.8091 38.586C51.4528 37.9424 51.8145 37.0694 51.8145 36.1591V34.707C51.8145 33.7968 51.4528 32.9238 50.8091 32.2802C50.1653 31.6365 49.2922 31.2749 48.3818 31.2749Z" fill="black"/>
<path d="M31.2592 23.3244H28.7203V20.1258C21.723 19.6587 16.2186 15.3329 16.2186 10.0832C16.2186 4.5288 22.4035 0 29.9898 0C37.5761 0 43.7711 4.5288 43.7711 10.0832C43.7711 14.348 40.2674 18.0543 34.8442 19.5368L34.1739 17.0896C38.3987 15.932 41.2829 13.1193 41.2829 10.0832C41.2829 5.91993 36.2051 2.53857 30.0406 2.53857C23.8761 2.53857 18.8083 5.91993 18.8083 10.0832C18.8083 14.2464 23.8862 17.638 30.0406 17.638H31.31L31.2592 23.3244Z" fill="black"/>
<path d="M12.8774 26.7159H10.3486V24.2789C4.53958 23.8118 0.0101318 20.2172 0.0101318 15.7696C0.0101318 11.058 5.20985 7.21973 11.6181 7.21973C12.5532 7.20719 13.4875 7.27514 14.4109 7.42281L13.9539 9.92075C13.1723 9.78638 12.3807 9.71846 11.5876 9.71768C6.67228 9.71768 2.5186 12.4695 2.5186 15.729C2.5186 18.9885 6.67228 21.7505 11.5876 21.7505H12.8571L12.8774 26.7159Z" fill="black"/>
<path d="M15.6703 23.7719L15 21.3244C16.5105 20.9515 17.9057 20.212 19.0623 19.1714L20.8091 21.0096C19.3526 22.3435 17.5863 23.2929 15.6703 23.7719V23.7719Z" fill="black"/>
<path d="M49.6513 26.7161H47.1124V24.2791C44.1805 24.1223 41.3882 22.9769 39.1909 21.0297L40.9479 19.1816C43.0161 20.9438 45.6658 21.874 48.3819 21.7913H49.6513V26.7161Z" fill="black"/>
<path d="M52.4542 23.7713L51.784 21.3241C55.176 20.4001 57.4509 18.156 57.4509 15.7494C57.4509 12.4899 53.2972 9.73809 48.3818 9.73809C47.5986 9.73376 46.8167 9.80176 46.046 9.94118L45.589 7.42291C46.511 7.2599 47.4455 7.17835 48.3818 7.17921C54.7799 7.17921 59.9898 11.0175 59.9898 15.7291C59.9898 19.3745 57.0649 22.5223 52.4542 23.7713Z" fill="black"/>
</svg>
