<svg width="57" height="54" viewBox="0 0 57 54" fill="none" xmlns="http://www.w3.org/2000/svg">
<path d="M34.2 42.6316V48.3158L39.9 51.1579V54H17.1001L17.0887 51.1693L22.8001 48.3158V42.6316H2.82731C2.45307 42.6293 2.08294 42.5535 1.73815 42.4083C1.39336 42.2632 1.08068 42.0516 0.81804 41.7858C0.555397 41.5199 0.347953 41.2049 0.207598 40.8589C0.0672419 40.513 -0.00326556 40.1428 0.000116126 39.7696V2.862C0.000116126 1.28179 1.29686 0 2.82731 0H54.1728C55.7346 0 57 1.27611 57 2.862V39.7696C57 41.3498 55.7032 42.6316 54.1728 42.6316H34.2ZM5.7001 5.68421V37.2632H51.3V5.68421H5.7001Z" fill="black"/>
<path d="M31 29.2727V34H26V29.2727H31ZM31 8V24.5455H26V8H31Z" fill="#153A1D"/>
</svg>
