<svg xmlns="http://www.w3.org/2000/svg" width="72" height="72">
    <path fill="#DCDFE4" fill-rule="evenodd" d="M53.996 51.014l-2.982 2.982L36.228 39.21c-3.83 3.167-8.739 5.071-14.085 5.071C9.935 44.281.004 34.35.004 22.143.004 9.936 9.935.004 22.143.004c12.207 0 22.138 9.932 22.138 22.139 0 5.346-1.904 10.255-5.071 14.086l14.786 14.785zM40.064 22.143c0-9.882-8.039-17.922-17.921-17.922S4.221 12.261 4.221 22.143c0 9.882 8.04 17.922 17.922 17.922 9.882 0 17.921-8.04 17.921-17.922zm-14.569.61c-.274.173-.519.289-.716.381-.407.191-.557.142-.553 1.287v1.032c0 .41-.332.742-.742.742h-2.969c-.41 0-.742-.332-.742-.742v-1.025c-.039-3.449 1.384-4.297 3.403-5.476.883-.516 1.29-1.717.908-2.679l-.005-.012c-.306-.813-1.219-1.593-2.5-1.382-.997.168-1.826 1.162-1.806 2.169.009.416-.327.756-.742.756h-2.969c-.405 0-.735-.324-.742-.729-.056-3.153 2.369-6.058 5.475-6.58 3.358-.595 6.35 1.334 7.441 4.169 1.155 3.016.003 6.416-2.741 8.089zM22 29.164c1.229 0 2.226.997 2.226 2.226 0 1.23-.997 2.227-2.226 2.227-1.23 0-2.227-.997-2.227-2.227 0-1.229.997-2.226 2.227-2.226z"/>
</svg>
